<svg xmlns="http://www.w3.org/2000/svg" width="4589.714" height="5942.857"><g style="display:inline"><path d="M2478.521 3240.605c-599.87 102.73-1565.103 664.677-2114.958 24.47 226.062-55.343 343.754-277.919 811.025-422.991l758.588 13.983s939.568-127.227 1691.967-339.092c530.026 396.03-154.418 463.738-101.378 681.68-262.01 142.818-664.202-23.305-1045.244 41.95z" style="fill:#8d0d13;fill-opacity:1;stroke-width:283.465;stroke-linecap:round;stroke-linejoin:round;paint-order:stroke fill markers"/><path d="M2595.498 2753.7c-676.202 80.75-1227.753 348.477-2170.33 29.662 196.986-333.833 421.87-332.885 632.806-499.324-262.299-111.539-521.999-197.086-835.503-820.672 396.052-2.28 743.54-277.728 1235.952 262.022-102.364-346.486-517.832-468.21-237.303-825.615 232.883 290.311 662.163 66.557 946.275 344.731-3.32-418.135-524.48-452.085-678.185-852.975 426.98 269.952 1137.942 54.384 1202.555 943.866 24.545-371.196-130.874-694.402-300.639-1013.782 247.758 223.244 556.706 317.309 580.302 1013.782-27.724-265.065-173.38-451.51 286.656-1041.748 163.31 279.314 446.218 405.807 160.807 1258.487 156.962 73.046 305.712 39.327 449.51-58.768 26.655 342.442-415.385 507.101-400.57 827.844 131.832-3.58 270.602-62.672 377.547 132.84-343.592 186.197-761.271 284.836-1249.88 299.65z" style="fill:#e99900;fill-opacity:1;stroke-width:283.465;stroke-linecap:round;stroke-linejoin:round;paint-order:stroke fill markers"/><path d="M2773.475 5695.264s648.283-1108.254 405.392-1834.152c447.692 263.35 1231.466 913.335 1191.457 1102.468C4244.97 3693.902 3071.47 3716.235 2971.227 3267.855c-43.578-194.921 194.234-14.491 262.022-538.875-184.291-25.848-400.449-395.504-400.449-395.504-327.58 327.45-979.16 321.161-889.885 598.2 114.828 356.328 256.639 233.496 192.809 400.449-609.84 242.087-1032.56 1519.901-929.436 2239.544 217.381-492.08 209.558-902.268 820.672-1537.524 258.92 457.933 513.67 955.466 746.515 1661.119z" style="fill:#ffca06;fill-opacity:1;stroke-width:283.465;stroke-linecap:round;stroke-linejoin:round;paint-order:stroke fill markers"/><path d="M2565.916 3509.781s242.599 123.381 328.605 384.538c71.722 217.784-83.9 583.798-83.9 583.798s-267.658-122.005-342.588-402.016c-66.305-247.783 97.883-566.32 97.883-566.32z" style="fill:#da161c;fill-opacity:1;stroke-width:283.465;stroke-linecap:round;stroke-linejoin:round;paint-order:stroke fill markers"/><path d="M3139.227 2296.74c-502.317-128.061-892.777 396.576-1538.151-80.404 111.92-118.308 320.95 198.058 583.798-716.639 160.425 75.92 191.87 329.191 293.647 342.589 430.334 43.915 419.135-312.025 688.672-244.706-331.286 412.754-53.918 485.794-27.966 699.16z" style="fill:#ffdf00;fill-opacity:1;stroke-width:283.465;stroke-linecap:round;stroke-linejoin:round;paint-order:stroke fill markers"/></g></svg>