<svg xmlns="http://www.w3.org/2000/svg" width="1828.571" height="1828.571"><g style="display:inline"><path d="M966.568 1476.885c-345.5 59.168-901.432 382.825-1218.125 14.094 130.202-31.876 197.987-160.07 467.116-243.625l436.914 8.054s541.15-73.278 974.5-195.303c305.272 228.096-88.938 267.093-58.39 392.619-150.906 82.257-382.551-13.423-602.015 24.16z" style="display:inline;fill:#8d0d13;fill-opacity:1;stroke-width:163.265;stroke-linecap:round;stroke-linejoin:round;paint-order:stroke fill markers"/><path d="M1033.941 1196.448c-389.462 46.509-707.132 200.708-1250.017 17.085 113.456-192.274 242.98-191.728 364.47-287.59C-2.679 861.702-152.256 812.43-332.82 453.271c228.109-1.313 428.247-159.96 711.855 150.914-58.957-199.561-298.249-269.669-136.676-475.52C376.489 295.874 623.737 167 787.373 327.217 785.46 86.388 485.295 66.834 396.767-164.06c245.922 155.48 655.406 31.323 692.62 543.626 14.137-213.793-75.377-399.945-173.155-583.894 142.698 128.579 320.64 182.756 334.23 583.894-15.968-152.666-99.86-260.05 165.1-600.002 94.06 160.873 257.004 233.728 92.619 724.835 90.403 42.071 176.077 22.65 258.898-33.848 15.353 197.232-239.244 292.069-230.71 476.803 75.929-2.062 155.855-36.097 217.45 76.51-197.894 107.241-438.46 164.053-719.877 172.585z" style="display:inline;fill:#e99900;fill-opacity:1;stroke-width:163.265;stroke-linecap:round;stroke-linejoin:round;paint-order:stroke fill markers"/><path d="M1136.449 2890.663s373.383-638.307 233.488-1056.393c257.852 151.679 709.272 526.042 686.229 634.975-72.198-731.28-748.085-718.417-805.82-976.665-25.1-112.267 111.87-8.346 150.913-310.369-106.144-14.888-230.641-227.794-230.641-227.794-188.673 188.598-563.955 184.976-512.536 344.538 66.136 205.23 147.813 134.484 111.05 230.641-351.242 139.432-594.711 875.398-535.315 1289.882 125.202-283.417 120.696-519.668 472.671-885.548 149.127 263.75 295.853 550.307 429.96 956.733z" style="display:inline;fill:#ffca06;fill-opacity:1;stroke-width:163.265;stroke-linecap:round;stroke-linejoin:round;paint-order:stroke fill markers"/><path d="M1016.904 1631.919s139.726 71.062 189.262 221.477c41.31 125.435-48.322 336.243-48.322 336.243s-154.16-70.27-197.316-231.544c-38.19-142.712 56.376-326.176 56.376-326.176z" style="display:inline;fill:#da161c;fill-opacity:1;stroke-width:163.265;stroke-linecap:round;stroke-linejoin:round;paint-order:stroke fill markers"/><path d="M1347.106 933.258c-289.313-73.757-514.2 228.412-885.909-46.308 64.461-68.14 184.854 114.072 336.243-412.753 92.398 43.725 110.508 189.6 169.128 197.316 247.854 25.293 241.404-179.713 396.646-140.94-190.807 237.728-31.055 279.796-16.108 402.685z" style="display:inline;fill:#ffdf00;fill-opacity:1;stroke-width:163.265;stroke-linecap:round;stroke-linejoin:round;paint-order:stroke fill markers"/></g></svg>