<?xml version="1.0" standalone="no"?>
<!DOCTYPE svg PUBLIC "-//W3C//DTD SVG 20010904//EN" "http://www.w3.org/TR/2001/REC-SVG-20010904/DTD/svg10.dtd">
<!-- Created using Krita: https://krita.org -->
<svg xmlns="http://www.w3.org/2000/svg" 
    xmlns:xlink="http://www.w3.org/1999/xlink"
    xmlns:krita="http://krita.org/namespaces/svg/krita"
    xmlns:sodipodi="http://sodipodi.sourceforge.net/DTD/sodipodi-0.dtd"
    width="48pt"
    height="48pt"
    viewBox="0 0 48 48">
<defs/>
<path id="shape0" transform="matrix(0.561797752808989 0 0 0.561797752808989 -10.7528089893515 -1.34831460674146)" fill="#eaeaea" fill-rule="evenodd" d="M0.06 266.04L144.06 266.04L144.06 0L0.06 0C-0.02 0.04 -0.02 88.72 0.06 266.04Z"/><path id="shape1" transform="matrix(0.561797752808989 0 0 0.561797752808989 -8.8601502538282 2.02153595691595)" fill="#848484" fill-rule="evenodd" d="M56.4274 239.057C62.7867 243.826 74.4726 244.15 82.5621 240.923C79.6572 219.597 73.2956 174.348 76.9711 155.642C79.747 155.296 84.2148 152.259 82.8511 145.322C82.2017 142.019 82.8226 132.902 84.2911 128.642C93.7482 128.457 134.063 120.703 131.991 114.002C131.423 112.163 104.363 119.565 84.7711 121.742C83.4972 113.748 87.3594 88.8332 82.3711 61.8017C80.7833 53.1974 92.8907 40.7494 83.0911 15.7217C80.8526 10.0047 74.3992 -1.29454 58.3711 0.121666C46.5393 1.1671 33.242 13.9821 31.4911 37.2017C30.8321 45.9409 39.2785 57.0386 32.6911 60.4817C22.1924 65.969 11.0543 87.3477 10.9711 93.2417C10.9105 97.5318 17.9173 125.14 14.6911 131.882C13.5054 134.359 -0.0768011 136.829 0.000327221 138.845C0.10385 141.551 10.7924 139.12 21.1287 140.458C25.5815 141.034 28.9965 141.872 30.4625 145.549C33.5015 153.171 28.9517 197.624 23.0803 240.499C28.2545 244.009 39.8071 245.142 48.8755 239.651C47.0396 219.48 49.0848 189.757 55.0111 150.482C58.4157 193.279 58.8878 222.804 56.4274 239.057Z"/>
</svg>
