<?xml version="1.0" encoding="UTF-8" standalone="no"?>
<svg
   xmlns:dc="http://purl.org/dc/elements/1.1/"
   xmlns:cc="http://creativecommons.org/ns#"
   xmlns:rdf="http://www.w3.org/1999/02/22-rdf-syntax-ns#"
   xmlns:svg="http://www.w3.org/2000/svg"
   xmlns="http://www.w3.org/2000/svg"
   xmlns:sodipodi="http://sodipodi.sourceforge.net/DTD/sodipodi-0.dtd"
   xmlns:inkscape="http://www.inkscape.org/namespaces/inkscape"
   inkscape:version="1.0 (4035a4fb49, 2020-05-01)"
   sodipodi:docname="full-colorscape.svg"
   viewBox="0 0 4589.7144 5942.8569"
   height="5942.8569"
   width="4589.7144"
   id="svg833"
   version="1.1">
  <metadata
     id="metadata839">
    <rdf:RDF>
      <cc:Work
         rdf:about="">
        <dc:format>image/svg+xml</dc:format>
        <dc:type
           rdf:resource="http://purl.org/dc/dcmitype/StillImage" />
        <dc:title></dc:title>
      </cc:Work>
    </rdf:RDF>
  </metadata>
  <defs
     id="defs837" />
  <sodipodi:namedview
     inkscape:current-layer="layer1"
     inkscape:window-maximized="1"
     inkscape:window-y="-8"
     inkscape:window-x="1912"
     inkscape:cy="2855.2629"
     inkscape:cx="1887.8568"
     inkscape:zoom="0.10113667"
     showgrid="false"
     id="namedview835"
     inkscape:window-height="1017"
     inkscape:window-width="1920"
     inkscape:pageshadow="2"
     inkscape:pageopacity="0"
     guidetolerance="10"
     gridtolerance="10"
     objecttolerance="10"
     borderopacity="1"
     bordercolor="#666666"
     pagecolor="#ffffff" />
  <g
     style="display:inline"
     inkscape:label="Image 1"
     id="layer1"
     inkscape:groupmode="layer">
    <path
       sodipodi:nodetypes="scccccs"
       id="path850"
       d="m 2478.521,3240.6049 c -599.87,102.73 -1565.10347,664.6767 -2114.95799,24.4707 226.06163,-55.3436 343.75352,-277.9191 811.02519,-422.9917 l 758.5882,13.9832 c 0,0 939.568,-127.2269 1691.9663,-339.0924 530.026,396.0306 -154.4182,463.7386 -101.3781,681.6806 -262.01,142.8179 -664.2017,-23.3053 -1045.2436,41.9496 z"
       style="fill:#8d0d13;fill-opacity:1;stroke-width:283.465;stroke-linecap:round;stroke-linejoin:round;paint-order:stroke fill markers" />
    <path
       sodipodi:nodetypes="ccccccccccccccccc"
       id="path852"
       d="M 2595.4977,2753.6995 C 1919.2962,2834.4502 1367.7454,3102.1767 425.16725,2783.3624 622.15359,2449.5288 847.03843,2450.4773 1057.9743,2284.038 795.67513,2172.4993 535.97514,2086.9524 222.47123,1463.3663 618.5225,1461.0866 966.01033,1185.6376 1458.4225,1725.388 1356.059,1378.9025 940.59122,1257.1787 1221.1199,899.77255 c 232.8833,290.31175 662.1636,66.55788 946.275,344.73165 -3.3203,-418.13533 -524.4797,-452.08545 -678.1849,-852.9748 426.9797,269.95114 1137.9418,54.38389 1202.5546,943.8655 24.5458,-371.19612 -130.8735,-694.40157 -300.6386,-1013.78147 247.7579,223.2438 556.706,317.3082 580.3025,1013.78147 -27.7241,-265.0653 -173.3796,-451.50974 286.6554,-1041.74785 163.3098,279.31395 446.2185,405.80699 160.8067,1258.48735 156.9625,73.046 305.7122,39.3264 449.51,-58.7685 26.6555,342.4416 -415.3849,507.1015 -400.5688,827.8441 131.8312,-3.58 270.6016,-62.6725 377.5462,132.8403 -343.5922,186.1967 -761.2714,284.8359 -1249.8803,299.6492 z"
       style="fill:#e99900;fill-opacity:1;stroke-width:283.465;stroke-linecap:round;stroke-linejoin:round;paint-order:stroke fill markers" />
    <path
       sodipodi:nodetypes="ccccccscccc"
       id="path848"
       d="m 2773.4747,5695.2636 c 0,0 648.2831,-1108.2538 405.392,-1834.1517 447.6928,263.3506 1231.4661,913.335 1191.4571,1102.4685 C 4244.9707,3693.9016 3071.4704,3716.2354 2971.227,3267.8552 c -43.5783,-194.9215 194.2341,-14.4912 262.0216,-538.8747 -184.2906,-25.8487 -400.4483,-395.5044 -400.4483,-395.5044 -327.5804,327.4507 -979.1612,321.1611 -889.8848,598.2004 114.8271,356.3277 256.6382,233.4957 192.8084,400.4482 -609.8406,242.0871 -1032.5608,1519.9015 -929.4354,2239.5438 217.3809,-492.08 209.5576,-902.2677 820.6716,-1537.5234 258.9196,457.9327 513.6708,955.4658 746.5146,1661.1185 z"
       style="fill:#ffca06;fill-opacity:1;stroke-width:283.465;stroke-linecap:round;stroke-linejoin:round;paint-order:stroke fill markers" />
    <path
       sodipodi:nodetypes="cscsc"
       id="path854"
       d="m 2565.9159,3509.7814 c 0,0 242.5987,123.3807 328.605,384.5378 71.7224,217.7841 -83.8991,583.7983 -83.8991,583.7983 0,0 -267.6583,-122.0054 -342.5883,-402.0168 -66.3056,-247.7823 97.8824,-566.3193 97.8824,-566.3193 z"
       style="fill:#da161c;fill-opacity:1;stroke-width:283.465;stroke-linecap:round;stroke-linejoin:round;paint-order:stroke fill markers" />
    <path
       sodipodi:nodetypes="cccccc"
       id="path856"
       d="m 3139.2268,2296.7394 c -502.317,-128.0609 -892.7768,396.5764 -1538.1513,-80.4033 111.92,-118.3079 320.9512,198.0574 583.7984,-716.6387 160.4249,75.9188 191.8693,329.1907 293.647,342.5883 430.3343,43.9156 419.1351,-312.0244 688.6723,-244.706 -331.286,412.754 -53.918,485.7942 -27.9664,699.1597 z"
       style="fill:#ffdf00;fill-opacity:1;stroke-width:283.465;stroke-linecap:round;stroke-linejoin:round;paint-order:stroke fill markers" />
  </g>
</svg>
