<?xml version="1.0" encoding="UTF-8" standalone="no"?>
<svg
   xmlns:dc="http://purl.org/dc/elements/1.1/"
   xmlns:cc="http://creativecommons.org/ns#"
   xmlns:rdf="http://www.w3.org/1999/02/22-rdf-syntax-ns#"
   xmlns:svg="http://www.w3.org/2000/svg"
   xmlns="http://www.w3.org/2000/svg"
   xmlns:sodipodi="http://sodipodi.sourceforge.net/DTD/sodipodi-0.dtd"
   xmlns:inkscape="http://www.inkscape.org/namespaces/inkscape"
   inkscape:version="1.0 (4035a4fb49, 2020-05-01)"
   sodipodi:docname="cover-colorscape.svg"
   viewBox="0 0 1828.5714 1828.5714"
   height="1828.5714"
   width="1828.5714"
   id="svg858"
   version="1.1">
  <metadata
     id="metadata864">
    <rdf:RDF>
      <cc:Work
         rdf:about="">
        <dc:format>image/svg+xml</dc:format>
        <dc:type
           rdf:resource="http://purl.org/dc/dcmitype/StillImage" />
        <dc:title></dc:title>
      </cc:Work>
    </rdf:RDF>
  </metadata>
  <defs
     id="defs862" />
  <sodipodi:namedview
     inkscape:current-layer="layer2"
     inkscape:window-maximized="1"
     inkscape:window-y="-8"
     inkscape:window-x="1912"
     inkscape:cy="1226.787"
     inkscape:cx="384.85537"
     inkscape:zoom="0.23242188"
     showgrid="false"
     id="namedview860"
     inkscape:window-height="1017"
     inkscape:window-width="1920"
     inkscape:pageshadow="2"
     inkscape:pageopacity="0"
     guidetolerance="10"
     gridtolerance="10"
     objecttolerance="10"
     borderopacity="1"
     bordercolor="#666666"
     pagecolor="#ffffff" />
  <g
     style="display:inline"
     inkscape:label="Image 1"
     id="layer2"
     inkscape:groupmode="layer">
    <path
       style="display:inline;fill:#8d0d13;fill-opacity:1;stroke-width:163.265;stroke-linecap:round;stroke-linejoin:round;paint-order:stroke fill markers"
       d="m 966.56814,1476.8847 c -345.49949,59.1681 -901.432637,382.8254 -1218.12527,14.0942 130.2018,-31.8757 197.987284,-160.0695 467.11576,-243.6252 l 436.9143,8.0538 c 0,0 541.15097,-73.2772 974.50017,-195.3027 305.2722,228.0966 -88.9384,267.0936 -58.3896,392.6188 -150.9065,82.2569 -382.5515,-13.4228 -602.01536,24.1611 z"
       id="path850"
       sodipodi:nodetypes="scccccs" />
    <path
       style="display:inline;fill:#e99900;fill-opacity:1;stroke-width:163.265;stroke-linecap:round;stroke-linejoin:round;paint-order:stroke fill markers"
       d="M 1033.9415,1196.4482 C 644.47854,1242.957 326.8089,1397.1561 -216.07574,1213.5327 -102.62005,1021.2588 26.903982,1021.8051 148.39402,925.94307 -2.6790762,861.70154 -152.25518,812.43028 -332.81996,453.27138 -104.71143,451.95835 95.426712,293.31154 379.03502,604.18463 320.07803,404.62385 80.7864,334.51616 242.35889,128.66557 376.4897,295.87265 623.73678,167.00002 787.37277,327.21618 785.46043,86.388194 485.29491,66.834389 396.7673,-164.06075 c 245.92203,155.4802838 655.4057,31.32281 692.6199,543.62614 14.1372,-213.79309 -75.3775,-399.945601 -173.15491,-583.89475 142.69791,128.578876 320.63881,182.755936 334.22931,583.89475 -15.9678,-152.66629 -99.8592,-260.05028 165.1012,-600.00215 94.0596,160.872848 257.0028,233.727411 92.6179,724.83479 90.4037,42.07137 176.077,22.65032 258.8985,-33.84811 15.3523,197.23163 -239.2439,292.06869 -230.7105,476.80274 75.9291,-2.06192 155.855,-36.09668 217.4505,76.51034 -197.8945,107.2412 -438.4598,164.0533 -719.8777,172.5852 z"
       id="path852"
       sodipodi:nodetypes="ccccccccccccccccc" />
    <path
       style="display:inline;fill:#ffca06;fill-opacity:1;stroke-width:163.265;stroke-linecap:round;stroke-linejoin:round;paint-order:stroke fill markers"
       d="m 1136.4489,2890.6631 c 0,0 373.3831,-638.3067 233.4883,-1056.3927 257.8519,151.6786 709.2717,526.0417 686.2283,634.9746 -72.1979,-731.2806 -748.084,-718.4172 -805.8198,-976.6651 -25.0994,-112.2665 111.8705,-8.3463 150.9131,-310.3688 -106.1434,-14.8877 -230.641,-227.79365 -230.641,-227.79365 -188.67234,188.59765 -563.95494,184.97515 -512.53556,344.53775 66.1355,205.2295 147.81263,134.4836 111.04939,230.641 -351.24207,139.432 -594.7108,875.3983 -535.31499,1289.8814 125.2021,-283.417 120.69621,-519.6676 472.6717,-885.5476 149.1266,263.7495 295.85226,550.3073 429.96056,956.7331 z"
       id="path848"
       sodipodi:nodetypes="ccccccscccc" />
    <path
       style="display:inline;fill:#da161c;fill-opacity:1;stroke-width:163.265;stroke-linecap:round;stroke-linejoin:round;paint-order:stroke fill markers"
       d="m 1016.9037,1631.919 c 0,0 139.7265,71.0621 189.2624,221.4772 41.3091,125.4343 -48.3222,336.2429 -48.3222,336.2429 0,0 -154.1598,-70.27 -197.31616,-231.5444 -38.18922,-142.712 56.37596,-326.1757 56.37596,-326.1757 z"
       id="path854"
       sodipodi:nodetypes="cscsc" />
    <path
       style="display:inline;fill:#ffdf00;fill-opacity:1;stroke-width:163.265;stroke-linecap:round;stroke-linejoin:round;paint-order:stroke fill markers"
       d="M 1347.1064,933.25846 C 1057.7932,859.5009 832.90512,1161.6697 461.19706,886.94963 c 64.46112,-68.14015 184.85413,114.07267 336.24286,-412.7531 92.39786,43.72595 110.50849,189.59969 169.12812,197.31616 247.85396,25.29348 241.40386,-179.71268 396.64556,-140.94018 -190.8064,237.72862 -31.0542,279.79668 -16.1072,402.68595 z"
       id="path856"
       sodipodi:nodetypes="cccccc" />
  </g>
</svg>
