<svg xmlns="http://www.w3.org/2000/svg" width="1000.141" height="530.075" viewBox="0 0 750.106 397.556"><path fill="#bd8243" fill-rule="evenodd" d="M0 103.429v294.127h750.106V76.909c.632 0-249.404 8.84-750.106 26.52Z"/><path fill="#d19c69" fill-rule="evenodd" d="M.398 254.86c14.53 13.319 26.9 19.004 37.107 17.053 12.148-2.321 12.615-59.26 51.758-83.636 18.437-11.483 57.494 13.253 118.141 10.501 6.99-.317 22.152-15.54 38.631-14.627 23.254 1.288 49.15 72.737 109.204 87.682 16.115 4.01 50.814-3.968 94.677-36.598 17.425-12.963 40.732-62.342 89.785-66.461 26.953-2.263 62.952-29.609 102.765-30.754 22.003-.633 58.015 14.268 108.038 44.705V0H.398c-1.061.53-1.061 85.484 0 254.86Z"/><path fill="#e5d6a4" fill-rule="evenodd" d="M521.123 397.556c-5.556-58.844-2.02-92.708 10.608-101.59 34.973-24.6 68.79-9.306 97.86 19.89 12.635 12.69 23.066 39.923 31.294 81.7 0 .695-46.588.695-139.762 0Z"/></svg>