<svg xmlns="http://www.w3.org/2000/svg" width="400.041" height="400.041" viewBox="0 0 300.031 300.031"><path fill="#bd8243" fill-rule="evenodd" d="M-38.254 41.919v294.116h750.078V15.399c.632 0-249.395 8.84-750.078 26.52Z"/><path fill="#d19c69" fill-rule="evenodd" d="M-37.856 193.344c14.53 13.319 26.899 19.003 37.106 17.052 12.147-2.32 12.615-59.257 51.755-83.632 18.437-11.483 57.493 13.252 118.138 10.5 6.988-.317 22.15-15.54 38.63-14.626 23.252 1.288 49.146 72.734 109.199 87.678 16.114 4.01 50.812-3.967 94.673-36.596 17.425-12.963 40.731-62.34 89.782-66.459 26.952-2.263 62.95-29.608 102.761-30.753 22.003-.633 58.013 14.268 108.034 44.704V-61.506H-37.856c-1.061.53-1.061 85.48 0 254.85Z"/><path fill="#e5d6a4" fill-rule="evenodd" d="M482.85 336.035c-5.556-58.842-2.02-92.704 10.607-101.586 34.972-24.6 68.787-9.306 97.856 19.89 12.635 12.688 23.065 39.92 31.293 81.696 0 .695-46.585.695-139.756 0Z"/></svg>