<?xml version="1.0" standalone="no"?>
<!DOCTYPE svg PUBLIC "-//W3C//DTD SVG 20010904//EN" "http://www.w3.org/TR/2001/REC-SVG-20010904/DTD/svg10.dtd">
<!-- Created using Krita: https://krita.org -->
<svg xmlns="http://www.w3.org/2000/svg" 
    xmlns:xlink="http://www.w3.org/1999/xlink"
    xmlns:krita="http://krita.org/namespaces/svg/krita"
    xmlns:sodipodi="http://sodipodi.sourceforge.net/DTD/sodipodi-0.dtd"
    width="810.114pt"
    height="810.114pt"
    viewBox="0 0 810.114 810.114">
<defs/>
<path id="shape0" transform="translate(0, -1.68773839435724)" fill="#efefef" fill-rule="evenodd" d="M0 1.68774L0 811.802L810.114 811.802L810.114 1.68774C813.115 -0.562579 543.077 -0.562579 0 1.68774Z"/><path id="shape1" transform="translate(99.0139858022916, 74.2604893517187)" fill="#818385" fill-rule="evenodd" d="M3.37548 0L604.21 5.62579L601.96 600.835L529.95 680.721L73.1353 681.846L0 599.71C0 599.71 1.12516 399.806 3.37548 0Z"/><path id="shape2" transform="translate(147.770881659744, 118.516747727105)" fill="#000000" fill-rule="evenodd" d="M0.750106 0L510.072 1.50021L511.572 463.566L0 463.566C0 463.566 0.250035 309.044 0.750106 0Z"/><path id="shape3" transform="translate(273.688994917517, 212.692416592876)" fill="#d7000e" fill-rule="evenodd" d="M0 130.673L129.961 259.734L259.196 132.287L129.961 0C128.643 0 85.3231 43.5578 0 130.673Z"/>
</svg>
