<?xml version="1.0" standalone="no"?>
<!DOCTYPE svg PUBLIC "-//W3C//DTD SVG 20010904//EN" "http://www.w3.org/TR/2001/REC-SVG-20010904/DTD/svg10.dtd">
<!-- Created using Krita: https://krita.org -->
<svg xmlns="http://www.w3.org/2000/svg" 
    xmlns:xlink="http://www.w3.org/1999/xlink"
    xmlns:krita="http://krita.org/namespaces/svg/krita"
    xmlns:sodipodi="http://sodipodi.sourceforge.net/DTD/sodipodi-0.dtd"
    width="762.175pt"
    height="763.175pt"
    viewBox="0 0 762.175 763.175">
<defs/>
<path id="shape0" transform="matrix(0.999999963420417 0 0 0.999999963420417 93.6394319903111 19.84289737002)" fill="#e0b055" fill-rule="evenodd" d="M2.27558 178.411C11.8234 220.282 107.414 270.918 303.952 248.219C500.49 225.52 555.64 164.119 552.509 122.69C546.929 48.8678 448.927 -15.6424 262.551 3.36197C76.1745 22.3663 -15.992 98.3017 2.27558 178.411Z"/><path id="shape01" transform="matrix(0.999999963420417 0 0 0.999999963420417 294.067514451701 545.12513894482)" fill="#bc84f3" fill-rule="evenodd" d="M37.0085 0L0 103.024L26.006 187.043L63.5146 98.5226C63.5146 98.5226 54.6792 65.6817 37.0085 0Z"/><path id="shape1" transform="matrix(0.999999963420417 0 0 0.999999963420417 506.116181690178 434.599772294576)" fill="#bc84f3" fill-rule="evenodd" d="M76.0174 239.555C95.3786 188.981 86.0875 131.894 86.5199 77.0177L0 0L8.00184 144.033C38.9002 180.519 61.5721 212.359 76.0174 239.555Z"/><path id="shape2" transform="matrix(0.999999963420417 0 0 0.999999963420417 769.176567464671 543.143184698855)" fill="#f4debd" fill-rule="evenodd" d="M11.0025 62.2458C43.3731 51.0059 56.2927 35.8357 49.7614 16.7353C43.2301 -2.36506 26.643 -5.11569 0 8.48344C0 8.48344 3.66751 26.4042 11.0025 62.2458Z"/><path id="shape3" transform="matrix(0.999999963420417 0 0 0.999999963420417 69.699242761475 685.657416656457)" fill="#f4debd" fill-rule="evenodd" d="M66.8321 0C9.70906 38.658 -10.7956 71.6655 5.31801 99.0227C21.4317 126.38 50.1049 127.547 91.3378 102.524C91.3378 102.524 83.1692 68.349 66.8321 0Z"/><path id="shape02" transform="matrix(0.999999963420417 0 0 0.999999963420417 48.7556943565315 270.062002649534)" fill="#3d63dc" fill-rule="evenodd" d="M1.25581 1406.32C-15.4151 1513.55 138.546 1573.62 187.199 1576.48C235.851 1579.34 331.109 1479.09 489.368 1453.33C588.471 1437.2 784.447 1438.44 787.436 1353.81C789.875 1284.77 684.913 1166.48 648.404 918.211C615.343 693.382 472.044 384.489 470.363 192.044C510.652 243.748 653.742 337.842 699.916 503.115C728.787 456.756 744.162 363.503 727.423 272.563C503.687 119.201 498.253 12.1685 442.357 0C410.363 39.8066 330.658 49.2324 257.815 57.0131C168.122 92.2438 198.586 202.903 150.29 347.08C145.407 361.657 112.892 379.912 84.2749 405.093C94.1927 463.021 106.8 605.825 123.284 628.644C170.854 538.274 265.485 356.813 279.32 302.069C304.927 375.083 267.574 502.179 229.308 650.649C154.932 939.227 36.0408 1182.59 1.25581 1406.32Z"/><path id="shape11" transform="matrix(0.999999963420417 0 0 0.999999963420417 245.85604428023 329.73654109371)" fill="#ede55a" fill-rule="evenodd" d="M61.7146 0.339235C45.7653 -2.95423 14.1145 17.6574 0 65.4919C106.553 101.76 176.36 142.737 287.858 256.808L272.652 165.217C281.122 143.759 210.809 88.7998 61.7146 0.339235Z"/><path id="shape03" transform="matrix(0.999999963420417 0 0 0.999999963420417 -2.74904775330704 342.890496670725)" fill="#835c31" fill-rule="evenodd" d="M0 19.0963L61.886 0C108.68 425.709 259.381 859.757 344.828 1256.48L305.819 1267.98C254.525 1050.53 152.586 634.235 0 19.0963Z"/><path id="shape12" transform="matrix(0.999999963420417 0 0 0.999999963420417 -39.7939868127024 248.757948080213)" fill="#ff9e21" fill-rule="evenodd" d="M41.9958 1.1267C19.3619 4.93815 -6.14592 28.1034 1.32786 67.61C8.80164 107.117 39.9039 123.028 68.1648 116.412C96.4257 109.795 119.903 92.0657 112.369 51.6964C104.835 11.3272 75.9467 -4.59049 41.9958 1.1267Z"/><path id="shape04" transform="matrix(0.999999963420417 0 0 0.999999963420417 283.610362738127 73.5294894433789)" fill="#f4debd" fill-rule="evenodd" d="M149.239 331.063C166.774 306.823 183.743 282.405 186.498 253.546L178.746 200.784L154.976 212.78C150.676 200.709 144.82 190.608 147.239 170.027L170.494 150.522L155.49 13.7407C122.874 -23.3199 -5.82078 21.1885 0.204785 69.0033C3.61124 97.4468 6.55167 123.592 17.7214 151.681C37.8043 184.721 62.1515 188.444 85.841 196.689C91.3789 232.742 59.3575 233.917 43.9648 250.295L46.4654 267.299C45.014 273.222 79.2718 294.477 149.239 331.063Z"/><path id="shape05" transform="matrix(0.999999963420417 0 0 0.999999963420417 247.392435797204 49.4986627122481)" fill="#bc84f3" fill-rule="evenodd" d="M80.5069 554.728C112.363 498.003 112.672 404.119 81.4331 273.075C95.7107 256.534 126.134 262.898 122.318 220.688C93.6221 214.423 70.7989 200.817 55.3021 178.054C49.2636 149.84 48.7402 130.466 37.1866 93.4115C46.4536 101.087 55.3925 107.368 68.3065 130.543C88.8221 109.328 96.8397 80.6139 105.969 52.5667C124.846 72.1328 138.054 94.019 170.507 115.337C177.629 94.4134 187.456 77.9105 191.194 56.9871L205.87 173.687C197.106 181.938 189.646 188.362 183.238 193.313C181.038 210.862 185.413 225.204 190.664 237.164L211.528 226.555C228.571 317.401 243.422 419.522 289.481 505.379C266.927 413.511 255.337 318.269 244.846 222.689C254.048 226.161 261.689 230.219 268.226 234.692C251.702 157.786 259.246 46.2943 217.214 21.0175C161.707 -12.3631 52.7182 -6.6665 18.1686 43.0226C-16.381 92.7117 4.16425 144.79 31.5734 244.9C33.6829 252.605 28.5078 277.654 29.053 294.63C35.9138 294.06 41.8247 283.932 43.0216 288.087C64.0988 368.611 83.4524 458.524 80.5069 554.728Z"/>
</svg>
