<?xml version="1.0" standalone="no"?>
<!DOCTYPE svg PUBLIC "-//W3C//DTD SVG 20010904//EN" "http://www.w3.org/TR/2001/REC-SVG-20010904/DTD/svg10.dtd">
<!-- Created using Krita: https://krita.org -->
<svg xmlns="http://www.w3.org/2000/svg" 
    xmlns:xlink="http://www.w3.org/1999/xlink"
    xmlns:krita="http://krita.org/namespaces/svg/krita"
    xmlns:sodipodi="http://sodipodi.sourceforge.net/DTD/sodipodi-0.dtd"
    width="96pt"
    height="96pt"
    viewBox="0 0 96 96">
<defs/>
<path id="shape0" transform="matrix(0.493825298580397 0 0 0.493825298580397 -21.8074083105541 51.6192350293001)" fill="#e14225" fill-rule="evenodd" d="M263.281 287.632C261.899 227.607 194.154 121.445 199.201 42.5912C213.561 59.3605 232.242 84.0764 238.801 82.9113C259.212 77.1061 256.754 47.8148 261.841 26.2711C220.282 24.9848 212.277 -7.36107 168.721 1.55104C123.909 11.7347 113.206 28.0092 91.6803 42.3512C94.7085 56.2831 77.5272 80.9917 80.4003 104.511C95.6159 88.128 110.489 72.2588 124.8 57.2312C128.449 139.803 30.7291 188.162 0 216.832C42.7354 364.502 146.716 234.256 263.281 287.632Z"/><path id="shape1" transform="matrix(0.493825298580397 0 0 0.493825298580397 12.948921732212 57.814131094705)" fill="#f2b452" fill-rule="evenodd" d="M0.278497 143.571C30.6843 168.214 105.692 161.188 127.728 166.652C83.6079 61.8874 103.428 49.7463 101.579 4.96641C91.5389 13.7712 85.1789 17.9312 82.4988 17.4465C76.4096 14.4428 79.3163 0.0467125 78.5131 0C42.2205 40.264 66.2954 44.2589 62.5787 59.3266C54.6678 91.3974 -4.54041 128.867 0.278497 143.571Z"/><path id="shape2" transform="matrix(0.493825298580397 0 0 0.493825298580397 -24.70971442198 133.574068428168)" fill="#ffefc8" fill-rule="evenodd" d="M0 151.887C28.5644 90.9155 94.7652 22.2203 96.2234 0C115.288 4.48218 144.376 10.3408 185.489 10.1824C175.318 24.527 163.288 37.9195 149.511 50.9119C181.007 64.0498 199.477 106.368 219.939 145.099C207.595 145.301 204.457 148.913 198.387 154.942C170.521 118.745 131.027 97.8395 111.158 53.4575C77.946 94.2203 48.7539 128.667 18.498 164.785C10.1411 165.143 3.97512 160.843 0 151.887Z"/><path id="shape3" transform="matrix(0.493825298580397 0 0 0.493825298580397 95.4666685138409 75.0814807003013)" fill="#ffefc8" fill-rule="evenodd" d="M0 16.6801C2.52525 10.8826 5.32526 5.32262 8.40003 0C43.6759 21.2809 62.9159 31.761 66.1202 31.4401C70.9267 30.9589 88.0802 8.1101 93.9604 11.88C99.8051 15.6273 87.4609 50.0645 70.5603 52.6802C53.6596 55.2959 14.5722 25.8562 0 16.6801Z"/><path id="shape4" transform="matrix(0.493825298580397 0 0 0.493825298580397 9.74973087245716 40.1777789846791)" fill="#ffefc8" fill-rule="evenodd" d="M24.1769 91.9203C29.4191 85.9876 26.9198 78.7644 26.5769 71.2803C23.5191 57.2169 17.2856 45.7735 26.3369 21.7201C23.6237 16.6045 20.57 9.27523 17.2169 0C8.56935 1.6265 -1.20022 1.77393 3.77682 21.3601C3.93234 46.4017 -5.90892 89.6083 5.57683 95.7604C10.9389 98.6324 22.1896 94.2734 24.1769 91.9203Z"/><path id="shape5" transform="matrix(0.493825298580397 0 0 0.493825298580397 39.7365197328742 27.055770550649)" fill="#ffefc8" fill-rule="evenodd" d="M27.5773 83.4143C78.0537 60.1707 50.004 23.5633 37.1657 0.258276C10.8614 -2.11472 11.929 12.4752 0 19.0108C8.19808 53.5836 19.0056 49.015 29.3592 51.255C32.5753 53.891 30.9668 57.9834 24.5337 63.5323C21.4772 72.0027 22.4918 78.6301 27.5773 83.4143Z"/><path id="shape6" transform="matrix(0.493825298580397 0 0 0.493825298580397 37.4518528208943 23.9407399650521)" fill="#f897cb" fill-rule="evenodd" d="M47.4002 88.4403C84.1462 57.7169 73.3638 30.1204 62.6402 2.52001L22.0801 0L0 23.5201C9.34291 49.5671 -2.98812 90.1987 13.9201 98.6404C16.354 88.0907 9.51199 80.7261 40.5602 58.2602C25.5217 55.3979 13.4071 51.9954 7.80003 28.628C14.2856 32.6597 19.9125 35.5115 28.2001 36.6001C25.8739 28.462 26.1001 19.7619 32.0401 9.72004C53.0364 22.7381 58.1564 48.9782 47.4002 88.4403Z"/><path id="shape7" transform="matrix(0.493825298580397 0 0 0.493825298580397 12.852689387482 6.55713568719692)" fill="#f0d9ad" fill-rule="evenodd" d="M11.4194 68.9212C-10.7541 78.8016 0.942556 99.9371 32.8873 86.4858C37.3161 84.6209 44.7266 82.839 55.1188 81.14C55.6397 77.2674 54.0226 73.3947 52.5735 69.5221C77.4056 22.8486 92.5769 47.6334 112.395 40.2408C116.231 48.002 119.779 55.8478 119.835 64.7209C149.223 55.0573 170.542 43.5418 168.907 35.1496C148.221 22.0112 132.812 32.0366 86.9387 2.39632C77.2446 -3.86742 54.4152 2.91748 47.3972 13.8515C39.1451 26.7081 47.0378 53.0499 11.4194 68.9212Z"/><path id="shape8" transform="matrix(0.493825298580397 0 0 0.493825298580397 57.9444951044465 -2.3999380930216)" fill="#f897cb" fill-rule="evenodd" d="M13.6163 0C14.9863 1.59024 16.9101 9.73266 16.4165 19.9405C22.6802 22.6874 32.1156 16.3862 41.0626 10.8599C39.1072 27.547 18.8529 33.1583 0.294384 39.7961C-1.23661 35.7765 3.20404 22.5111 13.6163 0Z"/><path id="shape9" transform="matrix(0.493825298580397 0 0 0.493825298580397 -49.9403149248045 208.412927408894)" fill="#a7754f" fill-rule="evenodd" d="M48.7163 0.507557C23.9021 25.6985 0.567797 50.0687 1.36822 60.2442C-6.61323 97.8418 22.6717 91.9928 28.6909 92.3186C49.6262 83.1713 43.0844 45.6249 71.2872 15.7811C67.7677 3.3736 60.244 -1.71759 48.7163 0.507557Z"/><path id="shape10" transform="matrix(0.493825298580397 0 0 0.493825298580397 48.9614472331174 204.301901113817)" fill="#a7754f" fill-rule="evenodd" d="M2.02361 54.8228C-6.34628 62.535 12.6632 85.6801 33.0799 87.7458C47.3997 89.0103 81.3173 84.9731 108.939 71.7934C127.772 54.5342 94.2967 31.592 75.6761 0.856224C67.1935 -1.03585 56.7799 -0.812304 46.4866 12.3962C45.2345 20.2893 46.8841 28.6582 53.4446 40.5675C40.6038 51.2993 23.4634 56.0511 2.02361 54.8228Z"/>
</svg>
