<svg xmlns="http://www.w3.org/2000/svg" width="567.363" height="733.763" viewBox="0 0 425.522 550.322"><path fill="#e14225" fill-rule="evenodd" d="M348.241 411.361c-1.382-60.025-69.127-166.187-64.08-245.04 14.36 16.769 33.041 41.485 39.6 40.32 20.411-5.805 17.953-35.097 23.04-56.64-41.559-1.287-49.564-33.633-93.12-24.72-44.812 10.183-55.515 26.458-77.04 40.8 3.028 13.932-14.153 38.64-11.28 62.16 15.215-16.384 30.088-32.253 44.4-47.28 3.648 82.571-94.072 130.93-124.8 159.6 42.735 147.67 146.715 17.424 263.28 70.8Z"/><path fill="#f2b452" fill-rule="evenodd" d="M155.62 279.845c30.406 24.643 105.414 17.617 127.45 23.081-44.12-104.764-24.3-116.906-26.149-161.685-10.04 8.804-16.4 12.964-19.08 12.48-6.09-3.004-3.183-17.4-3.986-17.447-36.292 40.264-12.217 44.259-15.934 59.327-7.911 32.07-67.12 69.54-62.3 84.244Z"/><path fill="#ffefc8" fill-rule="evenodd" d="M79.083 441.576c28.565-60.972 94.765-129.667 96.224-151.887 19.064 4.482 48.152 10.34 89.265 10.182-10.17 14.345-22.2 27.737-35.978 40.73 31.496 13.137 49.966 55.456 70.428 94.187-12.344.202-15.482 3.814-21.552 9.843-27.866-36.197-67.36-57.103-87.229-101.485-33.212 40.763-62.404 75.21-92.66 111.328-8.357.358-14.523-3.942-18.498-12.898ZM322.441 187.92a165.177 165.177 0 0 1 8.4-16.68c35.276 21.282 54.516 31.762 57.72 31.44 4.807-.48 21.96-23.33 27.84-19.56 5.845 3.748-6.499 38.185-23.4 40.8-16.9 2.617-55.988-26.823-70.56-36ZM173.04 192.48c5.243-5.932 2.744-13.155 2.4-20.64-3.057-14.063-9.29-25.506-.24-49.56-2.713-5.115-5.766-12.444-9.12-21.72-8.647 1.627-18.416 1.774-13.44 21.36.156 25.042-9.685 68.249 1.8 74.4 5.363 2.873 16.613-1.486 18.6-3.84ZM237.165 157.403c50.476-23.244 22.426-59.851 9.588-83.157-26.304-2.373-25.237 12.217-37.166 18.753 8.198 34.573 19.006 30.004 29.36 32.244 3.216 2.636 1.607 6.729-4.826 12.278-3.057 8.47-2.042 15.097 3.044 19.882Z"/><path fill="#f897cb" fill-rule="evenodd" d="M252.361 156.12c36.746-30.723 25.964-58.32 15.24-85.92l-40.56-2.52-22.08 23.52c9.343 26.047-2.988 66.679 13.92 75.12 2.434-10.549-4.408-17.914 26.64-40.38-15.039-2.862-27.153-6.264-32.76-29.632 6.485 4.032 12.112 6.884 20.4 7.972-2.326-8.138-2.1-16.838 3.84-26.88 20.996 13.018 26.116 39.258 15.36 78.72Z"/><path fill="#f0d9ad" fill-rule="evenodd" d="M166.567 101.4c-22.174 9.88-10.477 31.015 21.468 17.564 4.428-1.865 11.839-3.647 22.231-5.346.521-3.872-1.096-7.745-2.545-11.618 24.832-46.673 40.003-21.888 59.821-29.28 3.836 7.76 7.384 15.606 7.44 24.48 29.388-9.664 50.707-21.18 49.072-29.572-20.686-13.138-36.095-3.113-81.968-32.753-9.694-6.264-32.524.52-39.542 11.455-8.252 12.856-.359 39.198-35.977 55.07Z"/><path fill="#f897cb" fill-rule="evenodd" d="M260.075 14.34c1.37 1.59 3.294 9.733 2.8 19.94 6.264 2.748 15.7-3.554 24.646-9.08-1.955 16.687-22.21 22.298-40.768 28.936-1.531-4.02 2.91-17.285 13.322-39.796Z"/><path fill="#a7754f" fill-rule="evenodd" d="M76.707 441.745c-24.814 25.191-48.148 49.562-47.348 59.737-7.981 37.598 21.304 31.749 27.323 32.074 20.935-9.147 14.393-46.693 42.596-76.537-3.52-12.408-11.043-17.499-22.57-15.274ZM230.291 487.736c-8.37 7.712 10.64 30.857 31.057 32.923 14.32 1.264 48.237-2.773 75.859-15.953 18.833-17.259-14.643-40.201-33.263-70.937-8.483-1.892-18.896-1.668-29.19 11.54-1.252 7.893.398 16.262 6.958 28.171-12.84 10.732-29.98 15.484-51.42 14.256Z"/></svg>