<svg xmlns="http://www.w3.org/2000/svg" width="128" height="128" viewBox="0 0 96 96"><path fill="#e14225" fill-rule="evenodd" d="M108.207 193.66c-.682-29.643-34.136-82.068-31.644-121.008 7.091 8.281 16.317 20.486 19.556 19.91 10.079-2.866 8.865-17.33 11.377-27.97-20.523-.635-24.476-16.608-45.985-12.207-22.129 5.03-27.414 13.066-38.044 20.148 1.495 6.88-6.99 19.082-5.57 30.696a2578.817 2578.817 0 0 1 21.925-23.348c1.802 40.776-46.455 64.657-61.63 78.815 21.104 72.924 72.453 8.605 130.015 34.963Z"/><path fill="#f2b452" fill-rule="evenodd" d="M13.086 128.713c15.016 12.17 52.056 8.7 62.938 11.398-21.787-51.735-12-57.73-12.913-79.844-4.958 4.348-8.099 6.402-9.422 6.163-3.007-1.484-1.572-8.593-1.968-8.616-17.923 19.884-6.034 21.856-7.87 29.297-3.906 15.837-33.144 34.34-30.765 41.602Z"/><path fill="#ffefc8" fill-rule="evenodd" d="M-24.71 208.58c14.106-30.11 46.798-64.033 47.518-75.006 9.414 2.213 23.779 5.107 44.081 5.028-5.022 7.084-10.963 13.698-17.766 20.114 15.553 6.487 24.674 27.385 34.779 46.512-6.096.1-7.646 1.883-10.643 4.86-13.761-17.875-33.264-28.198-43.076-50.115-16.401 20.13-30.817 37.14-45.758 54.976-4.127.177-7.172-1.947-9.135-6.37ZM95.467 83.319a81.569 81.569 0 0 1 4.148-8.238c17.42 10.51 26.921 15.685 28.503 15.526 2.374-.237 10.845-11.52 13.749-9.659 2.886 1.85-3.21 18.857-11.556 20.148-8.346 1.292-27.648-13.246-34.844-17.777ZM21.689 85.57c2.589-2.93 1.354-6.496 1.185-10.192-1.51-6.945-4.588-12.596-.118-24.474-1.34-2.526-2.848-6.146-4.504-10.726-4.27.803-9.095.876-6.637 10.548.077 12.366-4.783 33.703.889 36.74 2.648 1.419 8.204-.734 9.185-1.896ZM53.355 68.248C78.28 56.77 64.43 38.692 58.09 27.183c-12.99-1.172-12.463 6.033-18.353 9.26 4.048 17.074 9.385 14.818 14.498 15.924 1.588 1.302.794 3.322-2.383 6.063-1.51 4.183-1.008 7.455 1.503 9.818Z"/><path fill="#f897cb" fill-rule="evenodd" d="M60.86 67.615c18.145-15.172 12.82-28.8 7.525-42.43l-20.03-1.244-10.903 11.615c4.614 12.862-1.476 32.927 6.874 37.096 1.202-5.21-2.177-8.847 13.156-19.94-7.427-1.414-13.41-3.095-16.178-14.634 3.202 1.99 5.981 3.4 10.074 3.937-1.149-4.019-1.037-8.315 1.896-13.274 10.369 6.428 12.897 19.386 7.585 38.874Z"/><path fill="#f0d9ad" fill-rule="evenodd" d="M18.492 40.592c-10.95 4.88-5.174 15.317 10.601 8.674 2.187-.92 5.847-1.8 10.979-2.64.257-1.912-.542-3.825-1.257-5.737 12.263-23.049 19.755-10.81 29.541-14.46 1.894 3.833 3.647 7.707 3.674 12.089 14.513-4.772 25.04-10.459 24.233-14.603C86.048 17.427 78.44 22.378 55.785 7.74c-4.787-3.093-16.06.258-19.526 5.657-4.075 6.35-.178 19.358-17.767 27.195Z"/><path fill="#f897cb" fill-rule="evenodd" d="M64.669-2.4c.676.785 1.626 4.806 1.382 9.847 3.094 1.357 7.753-1.755 12.171-4.484-.965 8.24-10.967 11.011-20.132 14.29-.756-1.986 1.437-8.536 6.579-19.653Z"/><path fill="#a7754f" fill-rule="evenodd" d="M-25.883 208.664c-12.254 12.44-23.777 24.474-23.382 29.499-3.941 18.567 10.52 15.678 13.493 15.84 10.338-4.518 7.108-23.06 21.035-37.797-1.738-6.127-5.453-8.641-11.146-7.542ZM49.96 231.375c-4.133 3.808 5.255 15.238 15.337 16.258 7.072.624 23.821-1.37 37.461-7.878 9.3-8.523-7.23-19.852-16.426-35.03-4.189-.935-9.331-.824-14.414 5.698-.619 3.898.196 8.031 3.436 13.912-6.341 5.3-14.806 7.646-25.393 7.04Z"/></svg>