<?xml version="1.0" encoding="UTF-8" standalone="no"?>
<!-- Created with Inkscape (http://www.inkscape.org/) -->
<svg
   xmlns:dc="http://purl.org/dc/elements/1.1/"
   xmlns:cc="http://web.resource.org/cc/"
   xmlns:rdf="http://www.w3.org/1999/02/22-rdf-syntax-ns#"
   xmlns:svg="http://www.w3.org/2000/svg"
   xmlns="http://www.w3.org/2000/svg"
   xmlns:sodipodi="http://inkscape.sourceforge.net/DTD/sodipodi-0.dtd"
   xmlns:inkscape="http://www.inkscape.org/namespaces/inkscape"
   id="svg2"
   sodipodi:version="0.32"
   inkscape:version="0.43"
   width="708.47998pt"
   height="1362.97pt"
   sodipodi:docbase="C:\Dokumente und Einstellungen\Raphael\Eigene Dateien\Eigene Bilder\Wikipedia\Bilder"
   sodipodi:docname="Ironiezeichen CPNB.svg"
   version="1.0">
  <metadata
     id="metadata7">
    <rdf:RDF>
      <cc:Work
         rdf:about="">
        <dc:format>image/svg+xml</dc:format>
        <dc:type
           rdf:resource="http://purl.org/dc/dcmitype/StillImage" />
      </cc:Work>
    </rdf:RDF>
  </metadata>
  <defs
     id="defs5" />
  <sodipodi:namedview
     inkscape:window-height="540"
     inkscape:window-width="830"
     inkscape:pageshadow="2"
     inkscape:pageopacity="0.0"
     borderopacity="1.0"
     bordercolor="#666666"
     pagecolor="#ffffff"
     id="base"
     showguides="true"
     inkscape:guide-bbox="true"
     inkscape:zoom="0.17722036"
     inkscape:cx="267.24091"
     inkscape:cy="969.0431"
     inkscape:window-x="176"
     inkscape:window-y="232"
     inkscape:current-layer="svg2">
    <sodipodi:guide
       orientation="vertical"
       position="-5.6426927"
       id="guide1310" />
    <sodipodi:guide
       orientation="vertical"
       position="885.90275"
       id="guide1312" />
  </sodipodi:namedview>
  <path
     style="fill:#000000"
     d="M 384.49917,1679.1482 C 333.91526,1636.5846 334.32547,1529.0731 385.25136,1482.0258 C 436.78003,1434.4214 528.95035,1436.3348 567.87302,1485.8174 C 583.30546,1505.4373 587.83232,1525.4982 587.83232,1574.2758 C 587.83232,1633.0086 585.5437,1639.6488 554.6561,1670.5362 C 524.93536,1700.2573 515.86733,1703.7124 467.58608,1703.7124 C 424.2355,1703.7124 407.9807,1698.9067 384.49917,1679.1482 z M 448.78022,1264.7891 C 402.76501,1228.5941 405.74971,1159.3243 461.67375,965.55393 C 477.39385,911.08626 490.12366,860.59058 489.96237,853.3413 C 489.80112,846.09178 440.46212,818.03429 380.32011,790.9907 C 241.20705,728.43674 222.14233,705.55304 230.24797,610.85587 C 233.23384,575.97251 251.19339,485.9582 270.15804,410.82432 C 289.12267,335.69041 314.4841,213.84256 326.51666,140.04955 L 348.39401,5.880275 L 410.05177,5.880275 C 489.40998,5.880275 525.28138,23.972363 538.11955,70.46862 C 552.12352,121.18719 539.91853,171.94444 461.4418,389.35597 C 423.62235,494.13023 392.67917,583.64352 392.67917,588.27441 C 392.67917,592.90529 433.96563,617.20312 484.42686,642.26959 C 591.98609,695.69963 640.92378,735.52223 656.30792,782.13666 C 671.07589,826.88418 663.93433,854.28531 601.88206,990.95993 C 561.66655,1079.5378 509.1823,1228.4294 509.71663,1252.4216 C 510.28908,1278.1262 506.85169,1284.1339 491.57157,1284.1339 C 481.56196,1284.1339 462.30591,1275.4292 448.78022,1264.7891 z "
     id="path1308" />
</svg>
