<?xml version="1.0" standalone="no"?>
<!DOCTYPE svg PUBLIC "-//W3C//DTD SVG 20010904//EN" "http://www.w3.org/TR/2001/REC-SVG-20010904/DTD/svg10.dtd">
<!-- Created using Krita: https://krita.org -->
<svg xmlns="http://www.w3.org/2000/svg" 
    xmlns:xlink="http://www.w3.org/1999/xlink"
    xmlns:krita="http://krita.org/namespaces/svg/krita"
    xmlns:sodipodi="http://sodipodi.sourceforge.net/DTD/sodipodi-0.dtd"
    width="251.881pt"
    height="655.082pt"
    viewBox="0 0 251.881 655.082">
<defs/>
<path id="shape0" transform="translate(163.440599780053, 150.30055155985)" fill="#ca7e3d" fill-rule="evenodd" d="M9.60004 55.9802C13.2261 57.6862 14.731 44.3542 30.8401 49.5002C34.7158 50.7382 35.1758 43.1782 32.2201 26.8201L6.12002 0L0 30.9601C3.51237 46.2816 6.71239 54.6216 9.60004 55.9802Z"/><path id="shape1" transform="translate(66.2402430826646, 152.280558825908)" fill="#ca7e3d" fill-rule="evenodd" d="M12.36 55.2002C16.0023 54.4216 18.6623 44.9016 20.3401 26.6401L7.38003 0L0 32.0401C5.66288 48.0311 9.78289 55.7511 12.36 55.2002Z"/><path id="shape2" transform="translate(39.9537381926617, 282.795994545956)" fill="#b9a9de" fill-rule="evenodd" d="M161.107 326.686C150.774 333.312 93.5303 304.369 96.8468 287.926C102.983 257.503 93.8918 229.867 94.6868 195.646C95.7867 148.297 103.037 80.144 93.7868 41.5652C85.2078 58.2562 55.7791 225.747 24.1265 293.206C19.2651 303.567 35.8092 350.21 32.4065 359.626C28.7285 369.805 2.18673 379.356 0.186411 345.586C-1.52969 316.615 9.09518 247.619 11.8865 223.606C14.8336 198.252 30.2737 182.893 31.3265 160.966C32.1051 144.751 27.7228 93.2987 35.4065 37.6052C71.5211 -11.2713 118.18 -13.3505 145.627 36.3452C136.175 117.393 120.278 260.059 123.667 271.246C128.364 286.749 183.018 312.636 161.107 326.686Z"/><path id="shape3" transform="translate(153.884530247123, 155.280569254867)" fill="#fcebd3" fill-rule="evenodd" d="M66.9163 30.0001C77.2134 38.5687 81.9734 44.9287 81.1963 49.0802C78.1911 65.1349 29.2685 100.727 15.9161 120.6C9.10442 130.739 -2.98577 121.483 0.676036 114.72C5.72334 105.399 7.49591 95.8362 12.9161 94.8004C24.1923 92.6454 51.8504 54.5165 53.1162 49.9202C53.9345 46.9489 37.5345 33.1888 11.4761 0C33.1962 3.36001 29.9561 10 66.9163 30.0001Z"/><path id="shape4" transform="translate(24.0889807174684, 158.040585761546)" fill="#fcebd3" fill-rule="evenodd" d="M25.9512 206.461C27.2319 213.497 5.07157 219.655 0.931112 203.041C-3.10272 186.854 7.27917 185.729 7.23114 169.501C7.17365 150.081 11.3005 107.833 16.5912 60.1202C21.7872 47.2849 33.7873 27.2448 52.5913 0C29.8132 110.07 20.9332 178.89 25.9512 206.461Z"/><path id="shape5" transform="translate(50.9401882286499, 25.9200957771222)" fill="#fcebd3" fill-rule="evenodd" d="M0 126C1.24772 117.334 4.24773 111.634 9.00003 108.9C22.1995 101.309 38.0113 95.0945 50.2047 85.4072C53.6062 82.7048 57.2114 70.3758 61.0202 48.4202L89.1003 0L115.38 48.0602L112.32 76.1403L89.4603 87.8403L143.461 125.64L78.3003 133.38C78.1803 133.38 52.0802 130.92 0 126Z"/><path id="shape6" transform="translate(37.5476681138942, 149.386433274027)" fill="#588cf4" fill-rule="evenodd" d="M9.61251 317.535C28.9371 262.701 51.5657 174.61 63.0127 173.415C69.6676 172.72 68.5875 232.658 91.5128 234.555C116.048 236.586 126.994 175.371 134.053 170.295C140.121 165.931 138.753 254.095 146.293 303.495C179.372 196.314 143.457 143.035 126.793 97.7545C122.333 85.6359 132.123 18.2997 138.313 17.2942C143.136 16.5107 164.224 29.2331 189.793 45.5543C186.106 28.3992 166.255 -2.27697 149.413 0.134119C92.5937 8.26854 105.351 8.96652 14.0525 1.81413C3.2589 0.968541 -4.50467 71.4522 2.95248 84.7944C10.1661 80.7513 21.7394 46.791 37.6926 22.6942C87.8806 157 -22.6975 186.638 9.61251 317.535Z"/><path id="shape7" transform="translate(75.713281791801, 3.05461689302958)" fill="#ca7e3d" fill-rule="evenodd" d="M107.347 132.126C106.279 108.93 114.484 90.896 116.887 64.6256C120.892 20.8487 95.2739 -0.389078 62.3472 0.00539434C-6.40185 0.829032 18.7925 81.679 2.047 113.946C-4.34209 126.257 5.84522 143.624 10.507 143.826C17.8789 144.146 25.4391 136.528 31.9271 115.926C35.0732 105.936 31.0998 89.8884 39.8471 69.1256C44.785 57.4053 57.1302 46.4736 65.0472 31.6255C74.568 61.2477 91.0731 59.3944 87.4873 87.5457C85.2235 105.319 67.1144 101.856 63.0072 110.586C60.5191 115.874 77.1633 117.769 75.0073 126.306C74.0117 130.248 78.8891 141.436 85.3873 145.446C93.1054 150.208 108.401 154.997 107.347 132.126Z"/>
</svg>
