<?xml version="1.0" standalone="no"?>
<!DOCTYPE svg PUBLIC "-//W3C//DTD SVG 20010904//EN" "http://www.w3.org/TR/2001/REC-SVG-20010904/DTD/svg10.dtd">
<!-- Created using Krita: https://krita.org -->
<svg xmlns="http://www.w3.org/2000/svg" 
    xmlns:xlink="http://www.w3.org/1999/xlink"
    xmlns:krita="http://krita.org/namespaces/svg/krita"
    xmlns:sodipodi="http://sodipodi.sourceforge.net/DTD/sodipodi-0.dtd"
    width="509.762pt"
    height="1140.48pt"
    viewBox="0 0 509.762 1140.48">
<defs/>
<path id="shape0" transform="translate(328.348445592469, 297.068135459512)" fill="#f0ede4" fill-rule="evenodd" d="M8.14262 0C20.2842 67.4668 39.5445 110.081 53.613 188.034C56.8167 205.785 65.9173 226.524 66.393 252.474C66.737 271.236 50.1389 283.177 45.873 281.634C39.1012 279.186 23.9062 203.467 0.287726 54.4784C-0.924515 56.5131 1.69378 38.3536 8.14262 0Z"/><path id="shape1" transform="translate(29.22777374727, 399.781500873529)" fill="#6f6d71" fill-rule="evenodd" d="M394.494 0C404.54 0.601123 401.057 5.02217 401.694 8.28003L6.23236 330.121C-1.55558 331.666 -0.168208 327.755 0.652339 324.181C0.652339 324.181 131.933 216.121 394.494 0Z"/><path id="shape2" transform="translate(209.502383447358, 338.788321715397)" fill="#8f4952" fill-rule="evenodd" d="M0 109.491C49.8974 115.796 100.225 121.551 148.154 114.073C146.873 80.1562 124.016 46.5155 130.334 10.9763C87.2916 -12.1056 47.0348 7.53007 5.85487 13.0128C12.1557 29.5664 10.2041 61.7257 0 109.491Z"/><path id="shape3" transform="translate(204.920316867968, 807.061239819778)" fill="#f0ede4" fill-rule="evenodd" d="M0 25.348L57.785 25.6026C54.4971 55.7959 54.8365 71.918 58.8032 73.9688C61.7939 75.515 80.5508 31.0684 110.733 0.146617C118.221 -1.37706 133.494 8.97502 156.554 31.2029C108.243 88.9944 75.1505 128.281 57.2759 149.064C57.2988 164.48 66.6124 180.615 63.3853 185.975C55.7008 198.738 37.9083 197.748 29.0198 194.121C17.5475 161.292 6.27913 86.4423 0 25.348Z"/><path id="shape4" transform="translate(177.354574492752, 447.769969930468)" fill="#728a96" fill-rule="evenodd" d="M137.79 359.692C150.721 374.436 179.352 396.724 202.957 394.822C213.896 376.58 226.015 341.156 222.967 312.193C215.74 243.513 183.7 85.5918 182.083 0C157.785 3.80937 108.834 7.28367 64.2223 1.01825C53.5155 -0.485442 32.548 -0.517359 24.2565 11.9643C-29.9646 93.5854 25.2832 264.664 14.0741 386.167C31.85 390.648 74.9745 395.972 95.024 384.639C89.137 351.543 89.6645 267.033 96.6064 131.112C149.391 244.533 163.119 320.727 137.79 359.692Z"/><path id="shape5" transform="translate(79.1995184447392, 281.706258178733)" fill="#f0ede4" fill-rule="evenodd" d="M53.101 0.354809C73.7011 -1.95392 95.1051 7.42891 100.441 16.1949C86.9724 32.6919 38.9557 68.3265 47.881 73.4351C57.4498 78.912 85.2262 111.481 116.821 137.695C127.131 146.249 147.6 134.782 165.241 147.235C179.022 156.963 175.838 169.466 169.741 179.455C162.878 190.7 124.35 181.707 117.901 176.575C83.0135 148.816 0.265987 94.8039 0.000781246 70.7351C-0.17214 55.0415 28.3937 21.4132 53.101 0.354809Z"/><path id="shape6" transform="translate(196.242313087207, 101.880380109372)" fill="#f0ede4" fill-rule="evenodd" d="M74.1187 138.601C70.8163 124.866 70.8163 116.946 74.1187 114.84C90.9826 104.087 114.148 90.9324 122.359 62.4602C125.634 51.1049 125.214 30.2848 121.099 0L5.17844 2.52001C-0.829774 35.1755 -1.60978 57.4355 2.83843 69.3003C8.88275 85.4223 24.7445 100.395 26.0585 109.08C27.0428 115.586 26.2628 123.146 23.7185 131.76C23.5985 132.84 40.3986 135.121 74.1187 138.601Z"/><path id="shape7" transform="translate(129.418298769193, 220.148879307962)" fill="#aa6f8a" fill-rule="evenodd" d="M0.661553 63.4303C-4.25005 56.0066 18.5018 11.3195 58.4465 0.554114C71.9048 -3.07298 98.164 12.3146 125.463 11.7547C144.065 11.3732 160.616 3.34263 181.653 7.68178C196.14 10.6698 209.249 29.9442 212.2 63.9394C213.893 83.4366 215.454 124.665 206.855 136.234C199.185 146.553 172.824 127.048 160.525 127.07C146.466 127.095 105.022 149.546 87.7209 138.016C79.6278 132.623 71.7364 110.052 64.0468 70.3034C35.7374 86.8023 14.609 84.5112 0.661553 63.4303Z"/><path id="shape8" transform="translate(165.974393257195, 24.5980555153769)" fill="#ebd9dd" fill-rule="evenodd" d="M148.152 177.777C163.993 161.319 170.832 103.011 170.553 79.5167C170.066 38.4817 149.029 -2.21975 88.9066 0.0942047C28.7841 2.40816 -4.57527 22.4651 0.507443 99.6269C4.5353 160.775 18.5008 189.584 25.9634 174.467C33.9582 158.273 39.652 94.8735 65.4201 94.7903C90.483 94.7094 97.6549 128.379 101.313 127.883C110.447 126.645 108.462 91.5455 125.751 91.481C151.542 91.3848 148.099 151.616 148.152 177.777Z"/><path id="shape9" transform="translate(172.055800108739, 951.033915064067)" fill="#aa6f8a" fill-rule="evenodd" d="M96.3252 39.6898C116.822 70.3921 140.172 138.531 133.045 155.79C125.355 174.414 95.4988 172.27 86.4252 166.95C79.8059 163.069 73.6859 147.709 68.0651 120.87C64.9074 132.969 59.5074 138.849 51.865 138.51C26.1631 137.371 -2.71684 50.351 0.204842 36.2698C3.14713 22.0892 40.8856 4.39835 51.1928 0C54.2626 10.184 58.0169 37.1555 61.9451 42.9298C67.4158 50.9716 83.1848 44.8457 96.3252 39.6898Z"/>
</svg>
