<svg xmlns="http://www.w3.org/2000/svg" width="335.841" height="873.443" viewBox="0 0 251.881 655.082"><path fill="#ca7e3d" fill-rule="evenodd" d="M173.04 206.28c3.627 1.707 5.132-11.625 21.24-6.48 3.876 1.239 4.336-6.321 1.38-22.68l-26.1-26.82-6.12 30.96c3.513 15.322 6.713 23.662 9.6 25.02ZM78.6 207.48c3.643-.778 6.303-10.298 7.98-28.56l-12.96-26.64-7.38 32.04c5.663 15.992 9.783 23.712 12.36 23.16Z"/><path fill="#b9a9de" fill-rule="evenodd" d="M201.06 609.482c-10.332 6.626-67.576-22.317-64.26-38.76 6.137-30.423-2.954-58.059-2.16-92.28 1.1-47.349 8.35-115.502-.9-154.08-8.578 16.69-38.007 184.181-69.66 251.64-4.861 10.361 11.683 57.004 8.28 66.42-3.678 10.179-30.22 19.73-32.22-14.04-1.716-28.971 8.909-97.967 11.7-121.98 2.947-25.354 18.387-40.713 19.44-62.64.779-16.215-3.603-67.667 4.08-123.36 36.115-48.877 82.774-50.957 110.22-1.26-9.451 81.047-25.348 223.713-21.96 234.9 4.698 15.503 59.352 41.39 37.44 55.44Z"/><path fill="#fcebd3" fill-rule="evenodd" d="M220.8 185.28c10.298 8.57 15.058 14.93 14.28 19.08-3.004 16.055-51.927 51.648-65.28 71.52-6.811 10.14-18.901.884-15.24-5.88 5.048-9.32 6.82-18.883 12.24-19.919 11.277-2.155 38.935-40.284 40.2-44.88.819-2.972-15.581-16.732-41.64-49.92 21.72 3.36 18.48 10 55.44 30ZM50.04 364.502c1.28 7.036-20.88 13.194-25.02-3.42-4.034-16.187 6.348-17.312 6.3-33.54-.057-19.42 4.07-61.668 9.36-109.381 5.196-12.836 17.196-32.876 36-60.12C53.902 268.11 45.022 336.93 50.04 364.5ZM50.94 151.92c1.248-8.666 4.248-14.366 9-17.1 13.2-7.59 29.011-13.805 41.205-23.493 3.401-2.702 7.007-15.031 10.815-36.987l28.08-48.42 26.28 48.06-3.06 28.08-22.86 11.7 54.001 37.8-65.16 7.74c-.12 0-26.22-2.46-78.3-7.38Z"/><path fill="#588cf4" fill-rule="evenodd" d="M47.16 466.921c19.325-54.834 41.953-142.925 53.4-144.12 6.655-.695 5.575 59.243 28.5 61.14 24.536 2.031 35.482-59.184 42.54-64.26 6.069-4.364 4.7 83.8 12.24 133.2 33.08-107.18-2.835-160.46-19.5-205.74-4.46-12.119 5.33-79.455 11.52-80.46 4.824-.784 25.912 11.939 51.48 28.26-3.686-17.155-23.537-47.832-40.38-45.42-56.819 8.134-44.061 8.832-135.36 1.68-10.793-.846-18.557 69.638-11.1 82.98 7.214-4.043 18.787-38.004 34.74-62.1 50.188 134.305-60.39 163.943-28.08 294.84Z"/><path fill="#ca7e3d" fill-rule="evenodd" d="M183.06 135.18c-1.068-23.195 7.137-41.23 9.54-67.5 4.005-43.777-21.613-65.014-54.54-64.62-68.749.824-43.554 81.674-60.3 113.94-6.389 12.312 3.799 29.679 8.46 29.88 7.372.32 14.932-7.297 21.42-27.9 3.146-9.99-.827-26.037 7.92-46.8 4.938-11.72 17.283-22.652 25.2-37.5 9.521 29.622 26.026 27.769 22.44 55.92-2.263 17.774-20.372 14.31-24.48 23.04-2.488 5.289 14.157 7.184 12 15.72-.995 3.943 3.882 15.13 10.38 19.14 7.719 4.763 23.014 9.552 21.96-13.32Z"/></svg>