<svg xmlns="http://www.w3.org/2000/svg" width="64" height="64" viewBox="0 0 48 48"><path fill="#ca7e3d" fill-rule="evenodd" d="M36.1 52.624c.932.439 1.318-2.986 5.457-1.664.996.318 1.114-1.625.354-5.827l-6.705-6.89-1.572 7.954c.902 3.936 1.724 6.078 2.466 6.427ZM11.838 52.933c.936-.2 1.62-2.646 2.05-7.338l-3.33-6.844-1.895 8.232c1.455 4.108 2.513 6.091 3.175 5.95Z"/><path fill="#fcebd3" fill-rule="evenodd" d="M48.37 47.23c2.645 2.2 3.868 3.834 3.669 4.901-.773 4.125-13.34 13.268-16.771 18.374-1.75 2.604-4.856.227-3.915-1.51 1.296-2.395 1.752-4.852 3.144-5.118 2.897-.554 10.002-10.35 10.328-11.53.21-.764-4.003-4.299-10.698-12.825 5.58.863 4.748 2.57 14.243 7.707ZM4.501 93.272c.329 1.807-5.364 3.39-6.428-.879-1.036-4.158 1.631-4.447 1.619-8.616-.015-4.99 1.045-15.843 2.404-28.1 1.335-3.298 4.418-8.447 9.249-15.446C5.493 68.51 3.212 86.19 4.5 93.271ZM4.732 38.659c.32-2.226 1.091-3.69 2.312-4.393 3.391-1.95 7.453-3.547 10.586-6.036.874-.694 1.8-3.861 2.778-9.502L27.622 6.29l6.752 12.347-.786 7.214-5.873 3.005 13.873 9.711-16.74 1.989c-.031 0-6.736-.632-20.116-1.896Z"/><path fill="#588cf4" fill-rule="evenodd" d="M3.761 119.584C8.726 105.497 14.54 82.866 17.48 82.559c1.71-.179 1.432 15.22 7.322 15.707 6.303.522 9.115-15.205 10.928-16.509 1.56-1.12 1.208 21.529 3.145 34.22 8.498-27.535-.729-41.223-5.01-52.856-1.146-3.113 1.37-20.412 2.96-20.67 1.239-.201 6.656 3.067 13.225 7.26-.947-4.407-6.047-12.288-10.374-11.669-14.597 2.09-11.32 2.27-34.774.432-2.773-.217-4.768 17.89-2.852 21.318 1.853-1.039 4.827-9.763 8.925-15.954C23.868 78.342-4.54 85.956 3.76 119.584Z"/><path fill="#ca7e3d" fill-rule="evenodd" d="M38.674 34.358c-.274-5.959 1.834-10.592 2.451-17.34C42.154 5.77 35.573.314 27.114.415 9.452.628 15.924 21.398 11.622 29.688c-1.641 3.163.976 7.624 2.174 7.676 1.894.082 3.836-1.875 5.503-7.167.808-2.567-.213-6.69 2.034-12.024 1.269-3.01 4.44-5.819 6.474-9.634 2.446 7.61 6.686 7.134 5.765 14.367-.581 4.566-5.234 3.676-6.289 5.919-.639 1.358 3.637 1.845 3.083 4.038-.256 1.013.997 3.887 2.667 4.917 1.983 1.224 5.912 2.454 5.641-3.422Z"/></svg>