<?xml version="1.0" standalone="no"?>
<!DOCTYPE svg PUBLIC "-//W3C//DTD SVG 20010904//EN" "http://www.w3.org/TR/2001/REC-SVG-20010904/DTD/svg10.dtd">
<!-- Created using Krita: https://krita.org -->
<svg xmlns="http://www.w3.org/2000/svg" 
    xmlns:xlink="http://www.w3.org/1999/xlink"
    xmlns:krita="http://krita.org/namespaces/svg/krita"
    xmlns:sodipodi="http://sodipodi.sourceforge.net/DTD/sodipodi-0.dtd"
    width="750.106pt"
    height="397.556pt"
    viewBox="0 0 750.106 397.556">
<defs/>
<path id="shape0" transform="translate(0, 76.9087314448516)" fill="#bd8243" fill-rule="evenodd" d="M0 26.5203L0 320.647L750.106 320.647L750.106 0C750.738 0 500.702 8.84008 0 26.5203Z"/><path id="shape1" transform="translate(-0.397803794174422, 0)" fill="#d19c69" fill-rule="evenodd" d="M0.795608 254.86C15.3266 268.179 27.6957 273.864 37.9031 271.913C50.0511 269.592 50.5182 212.653 89.6604 188.277C108.098 176.794 147.155 201.53 207.802 198.778C214.791 198.461 229.954 183.238 246.433 184.151C269.687 185.439 295.582 256.888 355.637 271.833C371.752 275.843 406.451 267.865 450.314 235.235C467.739 222.272 491.046 172.893 540.099 168.774C567.052 166.511 603.051 139.165 642.864 138.02C664.867 137.387 700.879 152.288 750.902 182.725L750.902 0L0.795608 0C-0.265203 0.530405 -0.265203 85.4836 0.795608 254.86Z"/><path id="shape2" transform="translate(518.576692816063, 283.682227746587)" fill="#e5d6a4" fill-rule="evenodd" d="M2.54626 113.874C-3.00954 55.0296 0.526498 21.1662 13.1544 12.2838C48.1269 -12.3159 81.9435 2.97744 111.014 32.174C123.649 44.8636 134.08 72.0969 142.308 113.874C142.308 114.569 95.7207 114.569 2.54626 113.874Z"/>
</svg>
