<?xml version="1.0" encoding="utf-8"?>
<!-- Generator: Adobe Illustrator 16.0.3, SVG Export Plug-In . SVG Version: 6.00 Build 0)  -->
<!DOCTYPE svg PUBLIC "-//W3C//DTD SVG 1.1//EN" "http://www.w3.org/Graphics/SVG/1.1/DTD/svg11.dtd">
<svg version="1.1" id="Ebene_1" xmlns="http://www.w3.org/2000/svg" xmlns:xlink="http://www.w3.org/1999/xlink" x="0px" y="0px"
	 width="40.844px" height="63.193px" viewBox="0 0 40.844 63.193" enable-background="new 0 0 40.844 63.193" xml:space="preserve">
<g>
	<path d="M20.479,38.54c-4.834,0.586-9.391,0.213-13.667-1.121C2.534,36.086,0.264,33.618,0,30.015c0-2.051,0.526-3.561,1.582-4.526
		c1.055-0.966,2.256-1.523,3.604-1.67c1.289-0.146,2.322,0.051,3.099,0.593c0.774,0.542,1.164,1.523,1.164,2.944
		s-0.294,2.512-0.88,3.273c-0.409,0.558-0.614,1.07-0.614,1.538c0.85,1.084,2.309,1.868,4.373,2.352
		c2.065,0.482,4.782,0.535,8.151,0.153c3.34-0.321,6.152-1.187,8.438-2.593s3.646-3.544,4.086-6.416
		c0-0.468-0.219-0.938-0.658-1.406c-0.557-0.205-0.836-1.018-0.836-2.438s0.389-2.593,1.166-3.517
		c0.775-0.923,1.809-1.456,3.098-1.604c1.318-0.117,2.504,0.308,3.56,1.274c1.787,1.348,1.992,3.618,0.614,6.812
		c-1.288,3.252-2.991,5.532-4.837,7.437C32.09,35.269,27.305,37.573,20.479,38.54z M20.215,0c2.168,0,3.676,1.29,4.525,3.867
		c0.204,0.996,0.309,1.905,0.309,2.725V7.69c0,1.787-0.484,7.456-1.451,17.007L21.27,47.681l-0.133,0.044h-2.063
		c-0.146,0-0.339-1.554-0.572-4.658c-2.256-22.062-3.383-33.56-3.383-34.497V6.68c0-3.839,1.317-6.05,3.955-6.637
		C19.512,0.015,19.893,0,20.215,0z M19.907,54.624h0.438c1.437,0,2.594,0.776,3.473,2.329c0.293,0.527,0.439,1.144,0.439,1.846
		v0.221c0,1.934-1.025,3.28-3.076,4.043c-0.293,0.088-0.572,0.132-0.836,0.132h-0.57c-1.582,0-2.842-0.895-3.778-2.681
		c-0.205-0.557-0.31-1.1-0.31-1.626v-0.353c0-1.553,0.896-2.783,2.683-3.691C18.985,54.697,19.497,54.624,19.907,54.624z"/>
</g>
</svg>
