<?xml version="1.0" encoding="UTF-8" standalone="no"?>
<svg
   xmlns:dc="http://purl.org/dc/elements/1.1/"
   xmlns:cc="http://creativecommons.org/ns#"
   xmlns:rdf="http://www.w3.org/1999/02/22-rdf-syntax-ns#"
   xmlns:svg="http://www.w3.org/2000/svg"
   xmlns="http://www.w3.org/2000/svg"
   xmlns:sodipodi="http://sodipodi.sourceforge.net/DTD/sodipodi-0.dtd"
   xmlns:inkscape="http://www.inkscape.org/namespaces/inkscape"
   sodipodi:docname="sarkmark.svg"
   inkscape:version="1.0 (4035a4fb49, 2020-05-01)"
   id="svg861"
   version="1.1"
   viewBox="0 0 134.04747 194.21525"
   height="194.21524mm"
   width="134.04747mm">
  <defs
     id="defs855" />
  <sodipodi:namedview
     inkscape:window-maximized="1"
     inkscape:window-y="-8"
     inkscape:window-x="1912"
     inkscape:window-height="1017"
     inkscape:window-width="1920"
     fit-margin-bottom="0"
     fit-margin-right="0"
     fit-margin-left="0"
     fit-margin-top="0"
     showgrid="false"
     inkscape:document-rotation="0"
     inkscape:current-layer="layer1"
     inkscape:document-units="mm"
     inkscape:cy="283.10791"
     inkscape:cx="324.09724"
     inkscape:zoom="0.7"
     inkscape:pageshadow="2"
     inkscape:pageopacity="0.0"
     borderopacity="1.0"
     bordercolor="#666666"
     pagecolor="#ffffff"
     id="base" />
  <metadata
     id="metadata858">
    <rdf:RDF>
      <cc:Work
         rdf:about="">
        <dc:format>image/svg+xml</dc:format>
        <dc:type
           rdf:resource="http://purl.org/dc/dcmitype/StillImage" />
        <dc:title></dc:title>
      </cc:Work>
    </rdf:RDF>
  </metadata>
  <g
     transform="translate(-43.089682,-51.197454)"
     id="layer1"
     inkscape:groupmode="layer"
     inkscape:label="Layer 1">
    <circle
       r="14.972656"
       cy="192.66939"
       cx="111.72978"
       id="path1424"
       style="fill:#000000;fill-opacity:1;stroke-width:0.228032" />
    <path
       sodipodi:nodetypes="szzzzzsszzzzzss"
       id="path1426"
       d="m 119.41297,156.93863 c 0.28439,-11.94385 -11.97097,-29.2264 -36.38549,-29.2264 -24.414516,0 -39.937798,23.70048 -39.937798,58.441 0,34.74052 29.093856,59.25947 70.054728,59.25947 40.96088,0 63.99274,-27.1377 63.99274,-86.49478 0,-59.357077 -28.02387,-107.720466 -67.95362,-107.720466 -39.929747,0 -51.02444,17.532247 -57.705656,26.601185 -4.29627,5.831663 4.375883,13.85597 9.616139,10.418284 5.794347,-3.801178 14.398405,-20.766773 46.100057,-20.766773 31.70165,0 52.36583,43.58719 52.36583,91.29221 0,47.70502 -13.83388,69.19037 -47.30113,69.19037 -33.467248,0 -50.759919,-20.24604 -50.759919,-42.04515 0,-21.79911 9.626016,-40.07537 22.021246,-40.07537 12.39523,0 15.81869,7.32953 19.183443,12.62049 4.47513,7.03699 16.51136,6.82457 16.70943,-1.49407 z"
       style="fill:#000000;fill-opacity:1;stroke:none;stroke-width:0.264583px;stroke-linecap:butt;stroke-linejoin:miter;stroke-opacity:1" />
  </g>
</svg>
