<?xml version="1.0" standalone="no"?>
<!DOCTYPE svg PUBLIC "-//W3C//DTD SVG 20010904//EN" "http://www.w3.org/TR/2001/REC-SVG-20010904/DTD/svg10.dtd">
<!-- Created using Krita: https://krita.org -->
<svg xmlns="http://www.w3.org/2000/svg" 
    xmlns:xlink="http://www.w3.org/1999/xlink"
    xmlns:krita="http://krita.org/namespaces/svg/krita"
    xmlns:sodipodi="http://sodipodi.sourceforge.net/DTD/sodipodi-0.dtd"
    width="1024.28pt"
    height="1024.28pt"
    viewBox="0 0 1024.28 1024.28">
<defs/>
<path id="shape0" transform="matrix(0.999999971397592 0 0 0.999999971397592 512.142247090829 559.155333202958)" fill="#5c5648" fill-rule="evenodd" d="M18.005 465.129L518.644 345.596L537.649 65.5182L260.572 0L0 41.0114C0.333443 41.0114 6.33512 182.384 18.005 465.129Z"/><path id="shape01" transform="matrix(0.999999971397592 0 0 0.999999971397592 116.032236613713 -0.1658319671551)" fill="#f3e2c9" fill-rule="evenodd" d="M913.094 470.876L658.818 465.218L78.4762 472.291L81.0225 64.1836L0 33.175L1.00028 0.165832L919.255 0.165832C919.255 -5.83583 917.202 151.068 913.094 470.876Z"/><path id="shape1" transform="matrix(0.999999971397592 0 0 0.999999971397592 546.391751708154 463.378728529626)" fill="#5b4d37" fill-rule="evenodd" d="M477.893 5.50153L228.574 0L51.0242 2.25063L0 130.756L227.398 112.72L477.893 153.036C479.706 153.036 479.706 103.858 477.893 5.50153Z"/><path id="shape02" transform="matrix(0.999999971397592 0 0 0.999999971397592 -14.0038906327137 0)" fill="#2b1f15" fill-rule="evenodd" d="M9.05277 0L142.733 0L221.951 48.8039L227.609 468.235C263.833 474.029 383.655 449.098 228.063 547.152L0 607.169C0 607.169 3.01759 404.779 9.05277 0Z"/><path id="shape11" transform="matrix(0.999999971397592 0 0 0.999999971397592 745.14399033245 49.5112285935183)" fill="#2b1f15" fill-rule="evenodd" d="M285.397 250.385L35.7188 292.824L1.76826 288.933L0 87.352L33.5969 93.7177L287.165 0C287.165 0 286.576 83.4618 285.397 250.385Z"/><path id="shape03" transform="matrix(0.999999971397592 0 0 0.999999971397592 609.169208131388 496.173235612526)" fill="#b4824c" fill-rule="evenodd" d="M12.904 10.9632L86.1099 8.48765L115.463 1.41461L167.096 0L404.612 12.218L403.362 20.9704L354.348 29.7228L349.597 38.4753L415.115 47.9779L422.117 98.4919L262.573 143.504L0 48.4781C0 48.1446 4.30134 35.6397 12.904 10.9632Z"/><path id="shape04" transform="matrix(0.999999971397592 0 0 0.999999971397592 821.478179151826 573.33663153179)" fill="#662d0a" fill-rule="evenodd" d="M0 255.394C12.5227 133.325 43.649 5.51386 154.543 0.0726424C169.023 -0.637844 185.111 3.86341 202.806 13.5764L202.806 316.411C99.0266 357.08 31.4245 336.741 0 255.394Z"/><path id="shape12" transform="matrix(0.999999971397592 0 0 0.999999971397592 558.139145052352 533.370781056747)" fill="#662d0a" fill-rule="evenodd" d="M206.809 181.713C128.684 172.645 86.5934 167.349 80.5383 165.823C79.5795 157.852 47.2597 89.7686 9.82537 66.0687C-27.5093 42.432 53.6601 12.7576 52.6172 5.24065C55.3469 -15.8835 197.232 34.1898 190.718 26.4597C220.618 18.1708 254.367 29.1263 287.442 36.7156C296.92 71.6066 307.439 94.6966 318.917 106.915L282.491 207.883C282.491 207.883 257.264 199.16 206.809 181.713Z"/><path id="shape05" transform="matrix(0.999999971397592 0 0 0.999999971397592 553.818456092207 988.279486302474)" fill="#48240a" fill-rule="evenodd" d="M10.5211 0L55.3465 38.1944L0 38.4596C0 38.4596 3.50705 25.6397 10.5211 0Z"/><path id="shape13" transform="matrix(0.999999971397592 0 0 0.999999971397592 709.322065660409 764.087280671735)" fill="#48240a" fill-rule="evenodd" d="M0 23.2565L217.56 0L217.06 25.3821L18.13 48.3884C18.13 48.3884 12.0867 40.0111 0 23.2565Z"/><path id="shape2" transform="matrix(0.999999971397592 0 0 0.999999971397592 563.90664681542 883.995563854771)" fill="#e07c2e" fill-rule="evenodd" d="M41.2615 140.289L0 106.28L9.25257 72.5201L193.804 44.5124L460.378 0L462.879 143.04C462.879 143.04 322.34 142.123 41.2615 140.289Z"/><path id="shape3" transform="matrix(0.999999971397592 0 0 0.999999971397592 622.426847242121 665.218692990017)" fill="#e07c2e" fill-rule="evenodd" d="M80.9862 123.601L304.14 98.492L15.207 0L0 3.35969L12.2494 42.2278C12.2494 42.2278 35.1617 69.3523 80.9862 123.601Z"/><path id="shape06" transform="matrix(0.999999971397592 0 0 0.999999971397592 295.272227097581 173.548214730681)" fill="#3c2719" fill-rule="evenodd" d="M70.8295 481.634L196.364 403.112L112.341 271.075C202.652 251.656 283.294 279.195 284.009 240.932C284.701 203.887 387.034 25.1478 324.325 13.1798L131.346 0C95.2955 62.6439 78.8125 108.591 81.8972 137.842C60.9396 113.267 35.6902 102.861 23.3679 112.91C7.81255 125.595 22.099 175.722 51.8242 224.562C54.0713 228.254 61.2594 231.776 66.867 231.913C71.86 240.712 65.0766 264.206 47.7699 295.571C43.3276 303.621 27.5311 310.4 0.380536 315.906C-3.33425 317.361 20.1487 372.604 70.8295 481.634Z"/><path id="shape14" transform="matrix(0.999999971397592 0 0 0.999999971397592 924.003301514748 840.895167994141)" fill="#26120d" fill-rule="evenodd" d="M16.0027 56.9379L47.8314 51.7216L65.2487 25.905L63.5689 15.6491L43.8528 22.9874L16.6216 0.972542L2.12191 0L0 26.2586C0 26.2586 5.33425 36.4851 16.0027 56.9379Z"/><path id="shape21" transform="matrix(0.999999971397592 0 0 0.999999971397592 670.123674555378 887.746590379568)" fill="#26120d" fill-rule="evenodd" d="M0 31.7589C7.76236 39.834 19.4294 44.0045 29.9739 49.2976L118.47 35.76L112.844 23.5065L27.5701 0C27.5701 0 18.3801 10.5863 0 31.7589Z"/><path id="shape31" transform="matrix(0.999999971397592 0 0 0.999999971397592 697.674794543501 811.475436777843)" fill="#d0895b" fill-rule="evenodd" d="M0.644181 80.3973C4.76787 94.4484 53.9999 93.4677 77.2905 104.654L111.8 23.6316C87.7535 15.3172 67.4916 0.83077 33.7784 0C8.14967 14.8907 -2.89507 41.6898 0.644181 80.3973Z"/><path id="shape4" transform="matrix(0.999999971397592 0 0 0.999999971397592 888.371758435938 806.343431942974)" fill="#d0895b" fill-rule="evenodd" stroke="#000000" stroke-opacity="0" stroke-width="0" stroke-linecap="square" stroke-linejoin="bevel" d="M0 21.0114C5.73413 13.3432 9.06726 3.42097 25.464 1.75049C38.0568 2.93028 53.3412 1.42941 68.1008 0C82.5358 4.50734 80.9703 9.82826 82.1478 15.0097C97.4295 14.1823 110.116 26.4362 115.032 33.2648C116.891 38.2705 114.693 46.1399 112.656 53.8955C122.445 68.6605 125.57 71.4993 126.285 75.7766C126.522 77.1954 126.188 78.3366 125.282 79.2002C111.11 81.8296 97.8399 84.7872 81.2525 86.5385C88.8124 74.4173 94.0287 64.1024 96.9016 55.5939C94.8582 58.2935 87.7507 62.8216 79.6079 62.8096C67.3938 62.7917 65.6891 51.7367 54.5519 41.89C51.009 38.7576 37.3437 34.6818 0 21.0114Z"/><path id="shape5" transform="matrix(0.999999971397592 0 0 0.999999971397592 369.102519910076 196.757048304926)" fill="#d48e65" fill-rule="evenodd" d="M88.5246 534.947C69.9598 531.147 40.4516 505.307 0 457.425C44.8932 416.68 82.3203 391.006 112.281 380.404C104.462 357.444 57.8398 325.771 31.2311 253.088C34.2366 196.441 171.491 254.048 195.325 210.65C208.608 186.465 203.483 3.23057 242.715 3.40977C300.086 12.9127 266.711 -20.9002 326.091 23.8042L343.595 104.327C333.267 174.291 322.598 226.472 311.587 260.87C302.098 290.512 199.82 407.795 161.545 403.41C155.043 424.166 155.343 480.877 88.5246 534.947Z"/><path id="shape07" transform="matrix(0.999999971397592 0 0 0.999999971397592 332.432516639427 168.3980568957)" fill="#0f0f0d" fill-rule="evenodd" d="M45.9226 157.442C30.5369 137.78 14.4461 116.864 0 115.054C8.37702 84.3744 26.1023 29.8518 39.4208 1.14904C94.3046 -2.20865 133.649 1.79246 157.454 13.1524C94.9506 24.546 62.9007 89.2993 45.9226 157.442Z"/><path id="shape15" transform="matrix(0.999999971397592 0 0 0.999999971397592 370.102805126165 76.6330909346285)" fill="#262521" fill-rule="evenodd" d="M0 98.1655C20.7886 48.0238 91.7765 -6.53241 176.049 0.638377C302.458 11.3946 344.649 113.122 347.597 181.689C349.562 227.4 346.477 254.074 338.344 261.711C335.509 258.378 331.58 256.138 327.341 254.209C353.142 143.638 288.98 126.378 209.308 120.172C129.636 113.965 71.3129 87.402 0 98.1655Z"/><path id="shape08" transform="matrix(0.999999971397592 0 0 0.999999971397592 302.372144512327 451.43630698244)" fill="#520c13" fill-rule="evenodd" stroke="#000000" stroke-opacity="0" stroke-width="0" stroke-linecap="square" stroke-linejoin="bevel" d="M19.6277 0L46.8588 7.60351C43.2816 15.9317 38.8904 21.708 33.6853 24.9324C28.4802 28.1568 18.6958 33.3143 4.33223 40.4047L0 28.1153C0 28.1153 6.54256 18.7435 19.6277 0Z"/><path id="shape16" transform="matrix(0.999999971397592 0 0 0.999999971397592 -9.50263947728394 469.130304428354)" fill="#520c13" fill-rule="evenodd" d="M9.50264 224.734L252.07 90.2751L277.577 20.5057L306.335 0L315.838 5.7516C351.391 93.3235 364.242 189.684 453.876 256.321C476.761 275.29 488.72 231.782 517.144 164.296C521.486 153.985 535.55 142.587 539.273 132.077L555.187 128.187L571.809 555.154L0 560.656C0 560.656 3.16755 448.682 9.50264 224.734Z"/><path id="shape22" transform="matrix(0.999999971397592 0 0 0.999999971397592 566.899070136559 663.096776524799)" fill="#520c13" fill-rule="evenodd" d="M66.6678 0L75.5091 39.2553L153.489 163.033C145.558 179.155 133.495 188.047 137.929 225.807C116.422 252.891 88.8207 272.574 54.1132 283.629C38.2396 278.179 26.4083 265.655 12.9128 256.044C-15.2561 245.941 2.66224 160.593 66.6678 0Z"/><path id="shape32" transform="matrix(0.999999971397592 0 0 0.999999971397592 -0.486270990603868 445.870062895396)" fill="#dc213a" fill-rule="evenodd" d="M145.026 359.854C103.527 349.348 55.3466 325.008 0.486271 286.833L0 145.347C69.0911 106.123 157.406 96.6446 235.802 66.2722C263.912 47.3283 274.091 17.8073 314.883 0.438295C319.018 -0.571746 326.125 -0.393278 351.662 7.15768C351.454 10.7399 349.606 13.01 347.772 15.2917C338.562 14.1279 331.36 10.9567 323.724 8.21863C319.202 18.0882 314.564 27.8669 307.102 35.4498C294.573 26.2443 283.344 35.0437 277.042 43.5838C256.941 70.8217 292.242 65.7189 290.834 75.0588C286.373 104.66 281.96 159.922 276.335 226.775C272.584 271.344 265.983 340.424 256.53 434.015C214.446 404.308 194.64 372.413 145.026 359.854Z"/><path id="shape41" transform="matrix(0.999999971397592 0 0 0.999999971397592 523.224715978875 583.259930035313)" fill="#dc213a" fill-rule="evenodd" d="M38.374 427.83C24.8845 353.672 6.96023 309.119 0.920865 271.477C-3.57804 243.437 9.42474 195.474 17.9256 124.937C20.5398 103.245 21.1376 66.6389 19.7189 15.1186C33.1997 10.9033 39.6719 5.34012 47.3038 0C57.6572 4.87233 63.6951 12.673 67.4619 22.0148C76.7633 27.1738 85.8257 32.4238 90.2724 39.4322C100.482 53.5529 106.643 68.6378 111.952 83.9254L82.5805 162.591C72.4704 280.038 57.7349 368.451 38.374 427.83Z"/><path id="shape51" transform="matrix(0.999999971397592 0 0 0.999999971397592 641.178107308956 701.194778819935)" fill="#dc213a" fill-rule="evenodd" d="M18.5051 173.548C-1.6304 105.407 3.9582 56.2209 0 0C17.5006 20.639 33.8396 35.7943 49.5138 66.2684C50.1579 69.1385 50.3128 71.8863 50.0139 74.5207C55.5295 74.2542 60.9872 75.0862 66.2684 79.272C70.0531 83.152 73.7554 87.1075 74.7708 93.526C83.8972 97.128 87.8782 103.454 93.2759 109.03C85.4108 117.324 78.52 123.344 68.0189 137.788C55.8257 143.103 39.3212 155.023 18.5051 173.548Z"/><path id="shape09" transform="matrix(0.999999971397592 0 0 0.999999971397592 788.719079365509 824.089920950684)" fill="#ffffeb" fill-rule="evenodd" d="M0 12.0173C1.35326 5.54551 39.107 0.342149 69.8944 0.0139871C100.682 -0.314175 141.567 5.18179 143.915 11.2671C143.367 15.8231 119.694 20.6994 72.8952 25.8962C33.641 23.7556 9.34262 19.1293 0 12.0173Z"/><path id="shape17" transform="matrix(0.999999971397592 0 0 0.999999971397592 769.021911931789 834.971469938482)" fill="#0b2b28" fill-rule="evenodd" d="M89.1138 174.439C36.4712 176.144 23.2684 167.503 20.6822 157.552C10.2653 154.331 4.34387 149.059 2.29227 143.759C-0.560707 136.389 -5.39463 72.6896 21.2126 10.4327C19.7065 7.21237 19.0581 3.85268 19.2675 0.353652C33.0474 7.51327 64.5234 8.98043 93.1807 8.66448C121.838 8.34852 153.766 8.58799 163.204 0C164.178 6.96807 159.966 12.1437 159.844 15.207C183.666 70.7982 174.786 134.238 172.576 140.753C169.305 150.391 157.558 156.015 149.942 158.259C146.632 171.763 124.209 173.302 89.1138 174.439Z"/>
</svg>
