<svg xmlns="http://www.w3.org/2000/svg" width="1349.64" height="2513.907" viewBox="0 0 1012.23 1885.43"><path fill="#e0b055" fill-rule="evenodd" d="M220.944 209.256c9.548 41.871 105.138 92.507 301.676 69.808 196.538-22.699 251.688-84.1 248.557-125.529-5.58-73.822-103.582-138.332-289.958-119.328-186.376 19.005-278.543 94.94-260.275 175.05Z"/><path fill="#bc84f3" fill-rule="evenodd" d="m456.105 556.128-37.009 103.024 26.006 84.019 37.509-88.52-26.506-98.523ZM707.162 685.157c19.361-50.574 10.07-107.66 10.503-162.537l-86.52-77.018 8.002 144.033c30.898 36.486 53.57 68.326 68.015 95.522Z"/><path fill="#f4debd" fill-rule="evenodd" d="M905.208 616.392c32.37-11.24 45.29-26.41 38.759-45.511-6.532-19.1-23.119-21.851-49.762-8.252l11.003 53.763ZM261.56 696.66c-57.123 38.658-77.628 71.665-61.514 99.023 16.114 27.357 44.787 28.524 86.02 3.5L261.56 696.66Z"/><path fill="#3d63dc" fill-rule="evenodd" d="M175.04 1687.384c-16.67 107.23 137.29 167.3 185.943 170.16 48.652 2.86 143.91-97.39 302.17-123.15 99.102-16.13 295.078-14.89 298.067-99.52 2.44-69.04-102.523-187.33-139.032-435.598-33.06-224.83-176.36-533.722-178.04-726.167 40.288 51.704 183.378 145.798 229.552 311.07 28.871-46.358 44.246-139.611 27.507-230.551-223.736-153.362-229.17-260.395-285.066-272.563-31.994 39.806-111.699 49.232-184.542 57.013-89.693 35.23-59.229 145.89-107.525 290.067-4.883 14.577-37.398 32.832-66.015 58.013 9.918 57.928 22.525 200.732 39.01 223.55 47.57-90.37 142.2-271.83 156.035-326.574 25.607 73.014-11.746 200.11-50.012 348.58-74.376 288.578-193.267 531.94-228.052 755.67Z"/><path fill="#ede55a" fill-rule="evenodd" d="M432.6 341.078c-15.95-3.293-47.6 17.318-61.715 65.153 106.553 36.268 176.36 77.245 287.858 191.316l-15.206-91.59c8.47-21.459-61.843-76.418-210.938-164.879Z"/><path fill="#835c31" fill-rule="evenodd" d="m122.28 372.99 61.886-19.097c46.794 425.709 197.495 859.757 282.942 1256.48l-39.01 11.5c-51.293-217.45-153.232-633.745-305.818-1248.884Z"/><path fill="#ff9e21" fill-rule="evenodd" d="M127.23 260.887c-22.633 3.812-48.141 26.977-40.667 66.483 7.473 39.507 38.576 55.418 66.836 48.802 28.261-6.617 51.739-24.346 44.205-64.715-7.534-40.37-36.423-56.287-70.374-50.57Z"/><path fill="#f4debd" fill-rule="evenodd" d="M557.878 415.595c17.535-24.24 34.504-48.658 37.259-77.517l-7.752-52.762-23.77 11.996c-4.3-12.071-10.156-22.172-7.737-42.753l23.255-19.505-15.004-136.781c-32.616-37.06-161.31 7.447-155.285 55.262 3.406 28.444 6.347 54.589 17.516 82.678 20.083 33.04 44.43 36.763 68.12 45.008 5.538 36.053-26.483 37.228-41.876 53.606l2.5 17.004c-1.451 5.923 32.807 27.178 102.774 63.764Z"/><path fill="#bc84f3" fill-rule="evenodd" d="M452.928 615.23c31.856-56.726 32.165-150.61.926-281.654 14.278-16.54 44.701-10.177 40.885-52.387-28.696-6.265-51.519-19.87-67.016-42.634-6.038-28.214-6.562-47.588-18.115-84.642 9.267 7.675 18.206 13.956 31.12 37.131 20.515-21.215 28.533-49.929 37.662-77.976 18.877 19.566 32.085 41.452 64.538 62.77 7.122-20.923 16.95-37.426 20.687-58.35l14.676 116.7c-8.764 8.251-16.224 14.675-22.632 19.626-2.2 17.55 2.175 31.891 7.426 43.851l20.864-10.609c17.043 90.846 31.894 192.967 77.953 278.824-22.554-91.868-34.144-187.11-44.635-282.69 9.202 3.472 16.843 7.53 23.38 12.003-16.524-76.906-8.98-188.398-51.012-213.674-55.507-33.38-164.496-27.684-199.045 22.005-34.55 49.689-14.005 101.767 13.404 201.877 2.11 7.705-3.065 32.754-2.52 49.73 6.86-.57 12.772-10.698 13.969-6.543 21.077 80.524 40.43 170.437 37.485 266.641Z"/></svg>