<svg xmlns="http://www.w3.org/2000/svg" width="1016.233" height="1017.567" viewBox="0 0 762.175 763.175"><path fill="#e0b055" fill-rule="evenodd" d="M95.915 198.254c9.548 41.87 105.138 92.507 301.676 69.808 196.538-22.7 251.688-84.1 248.557-125.53C640.568 68.712 542.566 4.2 356.19 23.206 169.814 42.209 77.647 118.145 95.915 198.254Z"/><path fill="#bc84f3" fill-rule="evenodd" d="M331.076 545.125 294.068 648.15l26.006 84.02 37.508-88.521-26.506-98.523ZM582.134 674.155c19.36-50.574 10.07-107.661 10.502-162.538l-86.52-77.017 8.002 144.033c30.898 36.486 53.57 68.326 68.016 95.522Z"/><path fill="#f4debd" fill-rule="evenodd" d="M780.18 605.389c32.37-11.24 45.29-26.41 38.758-45.51-6.531-19.1-23.118-21.852-49.761-8.252l11.002 53.762ZM136.531 685.657c-57.123 38.658-77.627 71.666-61.514 99.023 16.114 27.357 44.787 28.524 86.02 3.501l-24.506-102.524Z"/><path fill="#3d63dc" fill-rule="evenodd" d="M50.012 1676.382c-16.671 107.23 137.29 167.3 185.943 170.16 48.652 2.86 143.91-97.39 302.169-123.15 99.103-16.13 295.079-14.89 298.068-99.52 2.439-69.04-102.523-187.33-139.032-435.599-33.061-224.829-176.36-533.722-178.041-726.167 40.289 51.704 183.379 145.798 229.553 311.071 28.87-46.359 44.246-139.612 27.507-230.552-223.736-153.362-229.17-260.394-285.066-272.563-31.994 39.807-111.7 49.232-184.542 57.013-89.693 35.23-59.23 145.89-107.525 290.067-4.883 14.577-37.398 32.832-66.015 58.013 9.917 57.928 22.525 200.732 39.009 223.551 47.57-90.37 142.2-271.831 156.036-326.575 25.607 73.014-11.746 200.11-50.012 348.58-74.376 288.578-193.268 531.941-228.052 755.671Z"/><path fill="#ede55a" fill-rule="evenodd" d="M307.57 330.076c-15.949-3.294-47.6 17.318-61.714 65.152 106.553 36.269 176.36 77.246 287.858 191.317l-15.206-91.591c8.47-21.458-61.843-76.418-210.937-164.878Z"/><path fill="#835c31" fill-rule="evenodd" d="m-2.749 361.987 61.886-19.097c46.794 425.71 197.495 859.757 282.942 1256.48l-39.01 11.5C251.777 1393.42 149.838 977.125-2.748 361.987Z"/><path fill="#ff9e21" fill-rule="evenodd" d="M2.202 249.885c-22.634 3.811-48.142 26.976-40.668 66.483C-30.992 355.875.11 371.786 28.37 365.17c28.26-6.617 51.738-24.346 44.204-64.716-7.534-40.369-36.422-56.287-70.373-50.57Z"/><path fill="#f4debd" fill-rule="evenodd" d="M432.85 404.592c17.534-24.24 34.503-48.658 37.258-77.517l-7.752-52.762-23.77 11.996c-4.3-12.07-10.156-22.172-7.737-42.753l23.255-19.505L439.1 87.271c-32.616-37.061-161.31 7.447-155.285 55.262 3.407 28.443 6.347 54.588 17.517 82.677 20.083 33.04 44.43 36.763 68.12 45.008 5.537 36.053-26.484 37.228-41.877 53.606l2.5 17.004c-1.45 5.923 32.807 27.178 102.774 63.764Z"/><path fill="#bc84f3" fill-rule="evenodd" d="M327.9 604.227c31.855-56.725 32.164-150.61.926-281.653 14.277-16.541 44.7-10.177 40.884-52.387-28.695-6.265-51.519-19.871-67.015-42.634-6.039-28.214-6.562-47.588-18.116-84.643 9.267 7.676 18.206 13.957 31.12 37.132 20.516-21.215 28.533-49.93 37.662-77.977 18.877 19.566 32.085 41.453 64.538 62.77 7.122-20.923 16.95-37.426 20.687-58.35l14.676 116.7c-8.764 8.252-16.224 14.676-22.632 19.627-2.2 17.549 2.175 31.89 7.426 43.85l20.864-10.608c17.043 90.846 31.894 192.967 77.953 278.824-22.554-91.868-34.144-187.11-44.635-282.69 9.202 3.472 16.843 7.53 23.38 12.003-16.524-76.906-8.98-188.398-51.012-213.675-55.507-33.38-164.495-27.684-199.045 22.005-34.55 49.69-14.004 101.768 13.405 201.878 2.11 7.705-3.066 32.754-2.52 49.73 6.86-.57 12.771-10.698 13.968-6.543 21.077 80.524 40.43 170.437 37.485 266.64Z"/></svg>