<?xml version="1.0" standalone="no"?>
<!DOCTYPE svg PUBLIC "-//W3C//DTD SVG 20010904//EN" "http://www.w3.org/TR/2001/REC-SVG-20010904/DTD/svg10.dtd">
<!-- Created using Krita: https://krita.org -->
<svg xmlns="http://www.w3.org/2000/svg" 
    xmlns:xlink="http://www.w3.org/1999/xlink"
    xmlns:krita="http://krita.org/namespaces/svg/krita"
    xmlns:sodipodi="http://sodipodi.sourceforge.net/DTD/sodipodi-0.dtd"
    width="1382.4pt"
    height="777.6pt"
    viewBox="0 0 1382.4 777.6">
<defs/>
<path id="shape0" transform="matrix(0.999999982339365 0 0 0.999999982339365 0 -4.31998060301847)" fill="#000000" fill-rule="evenodd" d="M0 4.32L0 781.92L1382.4 781.92L1382.4 4.32C1383.36 -1.44 922.56 -1.44 0 4.32Z"/><circle id="shape01" transform="matrix(0.999999982339365 0 0 0.999999982339365 1139.75997518682 126.000018496422)" r="20.52" cx="20.52" cy="20.52" fill="#e9fffe" fill-rule="evenodd"/><circle id="shape02" transform="matrix(0.999999982339365 0 0 0.999999982339365 36.0000000545037 -60.4799790517717)" r="375.119997739117" cx="375.119997739117" cy="375.119997739117" fill="#6a1e4e" fill-rule="evenodd"/><path id="shape03" transform="matrix(0.999999936824709 0 0 0.999999936824709 33.3070779589352 -48.2722003791004)" fill="#000000" fill-rule="evenodd" d="M514.253 13.7122C200.035 46.5808 51.3954 300.154 61.553 565.232C-34.7771 410.374 -10.9871 239.792 84.0529 120.992C179.093 2.19269 343.695 -18.6824 514.253 13.7122Z"/><path id="shape04" transform="matrix(0.95607514803572 0.293121606141921 0.274563955842604 1.13012098957272 -482.0244565423 -123.155413940766)" fill="#51bed3" fill-rule="evenodd" d="M1319.68 18.9729C1557.11 44.9111 1744.21 90.7457 1746.35 155.474C1749.92 263.27 1351.73 337.757 902.947 338.676C454.162 339.595 11.8388 277.04 0.18134 161.53C-9.46359 65.9622 367.682 16.2385 640.997 0C625.762 16.9321 618.57 18.8671 587.544 55.772C431.223 76.5219 273.906 114.618 277.194 161.53C282.144 232.136 543.662 286.993 899.237 284.926C1254.81 282.859 1493.02 223.946 1486.65 161.53C1483.71 132.701 1408.81 104.056 1301.15 81.5651C1312.52 47.669 1308.6 63.1743 1319.68 18.9729Z"/>
</svg>
