<?xml version="1.0" standalone="no"?>
<!DOCTYPE svg PUBLIC "-//W3C//DTD SVG 20010904//EN" "http://www.w3.org/TR/2001/REC-SVG-20010904/DTD/svg10.dtd">
<!-- Created using Krita: https://krita.org -->
<svg xmlns="http://www.w3.org/2000/svg" 
    xmlns:xlink="http://www.w3.org/1999/xlink"
    xmlns:krita="http://krita.org/namespaces/svg/krita"
    xmlns:sodipodi="http://sodipodi.sourceforge.net/DTD/sodipodi-0.dtd"
    width="144pt"
    height="214.8pt"
    viewBox="0 0 144 214.8">
<defs/>
<path id="shape0" transform="translate(0, -0.0375000015384472)" fill="#e5e5e5" fill-rule="evenodd" d="M0 0.0375L0 214.838L144 214.838L144 0.0375C144.03 -0.0125 96.03 -0.0125 0 0.0375Z"/><path id="shape1" transform="translate(12.1054310495975, 6.10094772260281)" fill="#a9a9a9" fill-rule="evenodd" d="M63.4984 166.744C70.7528 161.737 66.4964 145.402 58.6346 137.959C53.4828 133.082 50.1071 112.686 45.8546 105.019C53.3546 106.092 56.3988 119.058 64.0346 127.579C66.5817 130.422 78.5806 126.689 82.9346 129.499C85.2183 137.738 100.16 163.148 111.271 179.981C119.427 192.339 119.916 206.628 125.102 203.57C131.668 199.698 128.54 179.827 120.689 177.266C116.742 175.978 100.304 140.664 102.7 128.56C103.215 125.964 118.41 126.768 109.574 119.227C105.521 115.768 97.255 96.6329 95.5728 86.0492C93.9866 76.0697 107.008 83.8811 117.21 75.9517C120.665 73.2667 129.585 62.2477 120.689 57.0295C108.839 50.0784 100.199 32.1506 101.937 23.343C102.96 18.156 98.1909 1.53327 95.2334 0.263013C91.9231 -1.15875 68.8993 3.21768 61.8862 12.5667C59.6917 15.4921 59.0807 30.1221 66.5531 37.5983C72.0634 43.1113 66.8772 48.0864 52.213 44.2168C31.1699 38.6639 15.4122 42.2908 9.7866 39.3802C7.10256 37.9915 -5.89765 41.8931 3.16808 44.9804C17.3187 49.7995 55.7286 49.3014 62.4802 64.4117C64.2297 68.3272 68.1377 87.0774 65.0258 88.3402C57.9362 91.2172 34.0534 87.9175 30.7346 95.8391C28.1743 101.95 47.0661 135.343 50.8554 143.579C57.5808 158.198 58.7786 170.002 63.4984 166.744Z"/>
</svg>
