<?xml version="1.0" standalone="no"?>
<!DOCTYPE svg PUBLIC "-//W3C//DTD SVG 20010904//EN" "http://www.w3.org/TR/2001/REC-SVG-20010904/DTD/svg10.dtd">
<!-- Created using Krita: https://krita.org -->
<svg xmlns="http://www.w3.org/2000/svg" 
    xmlns:xlink="http://www.w3.org/1999/xlink"
    xmlns:krita="http://krita.org/namespaces/svg/krita"
    xmlns:sodipodi="http://sodipodi.sourceforge.net/DTD/sodipodi-0.dtd"
    width="1382.41pt"
    height="777.603pt"
    viewBox="0 0 1382.41 777.603">
<defs/>
<path id="shape0" transform="translate(-7.20002664118425, 326.881209509765)" fill="#211c47" fill-rule="evenodd" d="M0 450.722L0 2.16001L1389.61 0L1389.61 450.722C1393.21 454.322 930.003 454.322 0 450.722Z"/><path id="shape1" transform="translate(-3.24001186329099, 0)" fill="#030c23" fill-rule="evenodd" d="M3.24001 352.801C197.461 395.485 388.982 415.765 577.802 413.642C766.623 411.518 1035.9 384.038 1385.65 331.201L1385.65 0L3.24001 0C-1.08 0 -1.08 117.6 3.24001 352.801Z"/><path id="shape2" transform="translate(102.346732930568, 525.281360308931)" fill="#020308" fill-rule="evenodd" d="M108.974 80.6009C128.81 60.0312 110.382 11.5101 81.9543 3.18394C53.5269 -5.14219 15.2351 1.96018 2.41367 35.2408C-10.4077 68.5214 32.4113 113.058 24.4238 183.412C55.5204 128.51 89.1379 101.171 108.974 80.6009Z"/><path id="shape3" transform="translate(521.299327560601, 604.382734121605)" fill="#020308" fill-rule="evenodd" d="M7.18267 70.2598C-6.85349 44.4669 0.404212 14.5473 22.6627 3.65957C44.9213 -7.22817 85.3694 7.50998 97.183 30.2997C105.059 45.4928 95.9608 91.637 104.743 145.14C61.4967 82.5564 21.2188 96.0527 7.18267 70.2598Z"/><path id="shape4" transform="translate(1074.87503565594, 560.693374064959)" fill="#020308" fill-rule="evenodd" d="M59.187 0.61007C23.4759 4.30372 -6.97931 29.1566 1.40204 61.7043C9.7834 94.2521 86.7328 117.649 111.117 190.766C132.327 124.646 133.389 65.2957 128.173 43.1215C120.349 9.86028 94.8982 -3.08358 59.187 0.61007Z"/><path id="shape5" transform="translate(1161.00439581582, 256.037633792961)" fill="#020308" fill-rule="evenodd" d="M85.8603 59.6836C104.251 49.0481 109.853 22.6357 99.0004 8.92336C88.1479 -4.78896 57.6745 -2.6123 42.4801 14.8634C32.3506 26.5138 27.1849 65.2692 0 104.864C26.5937 77.3746 73.6 66.7738 85.8603 59.6836Z"/><path id="shape6" transform="translate(321.697423155954, 336.888826235931)" fill="#020308" fill-rule="evenodd" d="M1.33844 46.2231C-6.20558 26.5061 19.6463 3.88641 41.184 0.792453C62.7216 -2.3015 94.1236 2.96097 100.362 29.1676C104.521 46.6386 96.555 79.9004 76.4641 128.953C31.4097 86.9443 6.36779 59.3677 1.33844 46.2231Z"/><path id="shape7" transform="translate(180.734304506892, 73.7735024753411)" fill="#020308" fill-rule="evenodd" d="M2.2939 28.8139C-3.71506 19.3933 2.98369 5.79842 11.9672 1.83064C20.9506 -2.13714 41.516 -0.195193 48.3691 13.0313C55.2223 26.2577 40.4538 52.1405 40.4778 67.507C27.244 47.0834 6.29987 35.0944 2.2939 28.8139Z"/><path id="shape8" transform="translate(985.495232564938, 66.6176801409864)" fill="#020308" fill-rule="evenodd" d="M3.0685 32.7427C-4.07581 22.702 2.50147 8.61462 10.0885 3.58258C17.6756 -1.44945 38.2438 -1.92129 44.8287 7.0026C49.2186 12.9519 52.2186 30.0519 53.8287 58.3028C24.7514 47.9565 7.83137 39.4365 3.0685 32.7427Z"/><path id="shape0" transform="matrix(0.999999991125443 0 0 0.999999991125443 636.653128290292 247.731455322865)" fill="#18a24d" fill-rule="evenodd" d="M86.9496 4.26949C56.71 48.0923 45.91 87.6925 54.5494 123.07C67.5086 176.136 244.382 289.356 280.27 349.465C318.643 413.737 290.036 462.926 258.31 482.351C237.16 495.302 173.375 500.369 111.79 456.071C111.195 453.785 116.579 444.255 123.97 440.597C182.948 470.68 256.493 460.83 259.03 432.311C264.053 375.842 91.0736 247.741 54.5494 215.23C-0.236846 166.464 -4.57376 114.024 2.70925 81.6698C9.99226 49.3155 23.3123 24.1154 42.6694 6.0695C57.3095 -1.37053 72.0695 -1.97053 86.9496 4.26949Z"/><path id="shape9" transform="translate(565.561761669894, 60.8696361663357)" fill="#020308" fill-rule="evenodd" d="M148.501 570.933C148.04 577.171 155.924 579.052 157.387 578.584C171.41 574.094 170.067 541.386 169.86 531.999C168.142 454.051 145.689 427.399 144.721 383.552C167.233 387.539 186.463 380.301 192.061 376.712C203.459 369.404 182.964 342.585 167.401 333.332C152.895 324.707 140.739 312.269 142.201 308.852C144.269 304.017 154.224 309.082 174.601 317.492C186.037 322.211 235.555 323.197 239.401 307.232C212.338 305.704 163.12 297.166 162.001 276.362C161.642 269.677 161.526 248.278 175.861 244.412C216.472 233.458 266.601 252.197 291.601 243.692C354.755 222.205 336.25 120.204 311.141 87.2839C250.382 7.62357 152.798 -4.89968 100.081 1.4106C27.1795 10.1369 0.0727538 65.2367 0.000355373 93.5709C-0.21551 178.053 97.9884 179.046 84.7807 221.371C78.3906 241.849 88.8676 262.292 92.7288 271.076C85.3819 277.947 75.3047 288.648 75.2406 294.992C74.9938 319.414 39.6035 302.658 16.6156 333.188C1.34815 353.465 18.3925 386.814 27.7205 389.852C66.5387 402.495 115.599 440.506 134.821 457.172C151.562 471.688 152.608 515.296 148.501 570.933Z"/><path id="shape10" transform="translate(396.039323530882, 229.31485148313)" fill="#18a24d" fill-rule="evenodd" d="M426.187 74.2691C426.94 32.4621 440.432 7.93954 466.662 0.701389C506.008 -10.1558 682.228 107.385 680.365 190.447C678.619 268.282 660.338 303.115 579.432 344.611C521.176 374.491 369.127 399.228 266.543 397.628C163.959 396.027 59.2246 384.639 43.8823 406.088C33.9921 419.914 92.187 447.958 218.467 490.219C213.746 496.131 212.344 502.707 209.812 509.057C143.235 487.088 57.9134 484.79 14.3104 438.289C-16.0297 405.932 3.77642 367.828 55.7624 359.287C189.622 337.296 549.212 382.081 616.598 235.151C639.817 184.523 556.123 142.819 426.187 74.2691Z"/><path id="shape11" transform="translate(60.4802296875513, 196.92074785173)" fill="#18a24d" fill-rule="evenodd" d="M689.763 0C496.928 54.4918 225.981 24.5093 183.642 27.6006C141.303 30.6919 86.5537 37.9849 66.2403 79.9203C52.6979 107.877 72.138 134.277 124.56 159.121C174.698 181.833 192.458 195.993 177.841 201.601C165.458 206.351 110.618 195.071 13.3201 167.761C11.0423 172.499 9.78044 178.796 0 183.241C114.912 237.311 184.033 244.871 207.361 205.921C242.353 147.495 91.9552 107.503 108.72 93.6004C129.015 76.7711 533.389 139.484 667.803 63.0002C682.978 55.6835 695.745 18.347 689.763 0Z"/><path id="shape12" transform="translate(326.527735819698, 171.0639124336)" fill="#18a24d" fill-rule="evenodd" d="M291.542 0C260.937 75.376 231.069 129.343 201.938 161.9C172.806 194.457 72.7997 223.208 64.9846 247.941C60.7626 261.302 156.495 306.304 240.631 309.035C324.767 311.766 510.809 272.666 624.506 288.67C700.304 299.34 781.763 338.203 868.883 405.259L853.1 425.114C776.044 366.153 697.3 332.042 616.869 322.781C536.439 313.52 330.305 362.968 226.884 358.42C123.463 353.872 18.9096 334.43 3.63579 282.561C-11.638 230.692 23.2026 205.338 70.9137 174.897C110.591 149.582 157.478 141.064 247.249 45.8207C248.265 44.743 260.995 28.8501 291.542 0Z"/>
</svg>
