<svg xmlns="http://www.w3.org/2000/svg" width="376.087" height="787.991"><path d="m164.013 143.792 62.736 5.876v32.837l-65.847.692z" style="fill:#000;fill-opacity:1;stroke-width:2;stroke-linecap:round;paint-order:stroke fill markers"/><path d="m176.956 159.602 20.042 9.41 20.408-5.988 1.956 6.844.855 7.088-21.753 5.133-24.441-7.822z" style="fill:#eff6f2;fill-opacity:1;stroke-width:2;stroke-linecap:round;paint-order:stroke fill markers"/><path d="m163.024 636.455 1.711-31.774 46.46-181.946 11.406 8.987 16.591 163.494-9.332 1.037 3.11 25.233c-20.766 17.285-43.646 24.372-69.946 14.969" style="fill:#1d3a53;fill-opacity:1;stroke-width:2;stroke-linecap:round;paint-order:stroke fill markers"/><path d="m163.149 145.693 15.727 12.444-1.21 7.258 11.58.692 7.777 6.74 27.134-12.962 13.307-17.456 1.383-34.91-12.444-15.555-60.49-6.222z" style="fill:#e0dad3;fill-opacity:1;stroke-width:2;stroke-linecap:round;paint-order:stroke fill markers"/><path d="m147.94 64.464-29.38-30.763-1.21-12.098 24.195 12.962 5.704-17.282 19.356 12.443 11.061 22.813zM217.935 54.613l16.073-25.06 11.58-4.32 1.555 17.974 5.876-2.42-1.037 8.123-16.073 21.258z" style="fill:#869197;fill-opacity:1;stroke-width:2;stroke-linecap:round;paint-order:stroke fill markers"/><path d="m241.115 184.288 11.487 6.11 1.467 10.877-10.144 11.61-3.177-29.574z" style="fill:#eff6f2;fill-opacity:1;stroke-width:2;stroke-linecap:round;paint-order:stroke fill markers"/><path d="m62.326 510.092 11.976 23.709 53.282 18.575 44.484 2.444 21.997-116.341-40.573 6.844-25.908-12.221-3.422-23.953 44.484 5.866 38.128-9.776-3.91-29.819 9.288-37.64 34.218 214.107 43.016-6.843 29.819-23.464-24.93-91.411-51.327-120.74 20.53-3.911.978-28.597-15.93-70.393-17.284 22.295-19.875 1.382-72.068-33.874-5.358 19.703 9.333 62.563-9.852 2.247 1.25 31.028 20.531 20.898-4.277 15.642-60.248 98.377z" style="fill:#4396a4;fill-opacity:1;stroke-width:2;stroke-linecap:round;paint-order:stroke fill markers"/><path d="m139.194 176.59 71.124 34.217 30.308-17.964L216.55 172.8l-18.209 8.066-39.228-15.032-20.042 10.143z" style="fill:#4396a4;fill-opacity:1;stroke-width:2;stroke-linecap:round;paint-order:stroke fill markers"/><path d="m155.89 328.371-2.938 19.357-18.147 2.247-17.11-28.863-3.975-18.665 7.259-22.122 12.27-1.21 3.803 31.973zM138.78 174.555l71.205 34.22 15.036-8.123 3.975 30.418-20.567.518-68.266-33.528-5.185 19.01-11.407-33.355z" style="fill:#eff6f2;fill-opacity:1;stroke-width:2;stroke-linecap:round;paint-order:stroke fill markers"/><path d="m151.742 345.654-23.504 40.787-42.17 27.652s.396-97.704 7.787-136.927 31.774-97.277 31.774-97.277l8.31-85.056s4.64-26.014 15.642-35.764 25.923-15.343 40.813-14.872c14.89.47 32.247 4.283 45.323 18.7 13.075 14.415 15.296 65.151 15.296 65.151l-10.265-8.285-2.2 42.528s17.924 50.43 27.375 76.99c9.45 26.56 21.61 54.878 29.33 82.368 7.718 27.49 17.108 82.123 17.108 82.123l-40.084-27.863-28.84-64.036 17.842-7.822 3.422-20.775-21.998-96.544 7.577 73.08-21.997-24.197-8.447-73.503 14.517-21.085.692-31.455-6.913-7.604L206.7 119.25 182.16 95.4l-15.555 19.01-1.382 45.972 8.987 21.43 8.64 57.38-29.847 27.218-4.4-84.567-4.643-6.599-18.576 9.288 12.71 36.662 7.332 57.926-22.73 4.888-6.21 21.376 9.678 32.146 9.678 10.888z" style="fill:#a9baba;fill-opacity:1;stroke-width:2;stroke-linecap:round;paint-order:stroke fill markers"/><path d="m148.604 677.516-6.6 46.928 31.774 44.972 31.286.733 18.33-14.42 4.889-14.176 12.22-8.066 7.577-34.218-4.155-47.905-31.285 5.621-10.51 21.509z" style="fill:#8d6a43;fill-opacity:1;stroke-width:2;stroke-linecap:round;paint-order:stroke fill markers"/><path d="m62.57 509.115 12.465 23.22 94.344 21.752 23.323-114.76-41.133 6.394-25.233-11.58-2.938-26.96 45.8 7.085 36.12-10.024-3.456-28.17 10.024-39.06 35.775 213.96 41.651-7.95 28.69-23.331 11.406 19.01-.864 28.171-91.425 35.603-22.122-172.827-14.518 174.9s-66.02 5.531-67.402 5.531-62.564-17.283-62.564-17.283L37.331 547.17ZM160.556 635.312l40.442.518 4.493-8.814 30.245-7.431 13.308 4.839-1.556 26.96-18.838 9.333-15.382-2.42-7.258 20.913-27.307 5.876-30.072-6.222-8.296-22.986 5.185-15.209z" style="fill:#eff6f2;fill-opacity:1;stroke-width:2;stroke-linecap:round;paint-order:stroke fill markers"/></svg>