<svg xmlns="http://www.w3.org/2000/svg" xmlns:xlink="http://www.w3.org/1999/xlink" xml:space="preserve" width="800" height="800" viewBox="0 0 211.667 211.667"><defs><linearGradient id="a"><stop offset="0" style="stop-color:#bcdeff;stop-opacity:1"/><stop offset="1" style="stop-color:#d5dcff;stop-opacity:1"/></linearGradient><linearGradient xlink:href="#a" id="b" x1="55.437" x2="209.371" y1="140.635" y2="-5.52" gradientUnits="userSpaceOnUse"/></defs><path d="M-2.295-5.52h211.667v211.667H-2.295z" style="display:inline;fill:url(#b);fill-opacity:1;stroke-width:.529167;stroke-linecap:round;paint-order:stroke fill markers" transform="translate(2.295 5.52)"/><path d="m79.112 119.711 59.551 5.578v31.17l-62.504.656z" style="fill:#000;fill-opacity:1;stroke-width:1.89847;stroke-linecap:round;paint-order:stroke fill markers" transform="translate(2.295 5.52)"/><path d="m91.398 134.719 19.025 8.932 19.372-5.684 1.856 6.496.812 6.728-20.648 4.872-23.2-7.424z" style="fill:#eff6f2;fill-opacity:1;stroke-width:1.89847;stroke-linecap:round;paint-order:stroke fill markers" transform="translate(2.295 5.52)"/><path d="m78.292 121.516 14.929 11.811-1.149 6.89 10.992.657 7.382 6.398 25.757-12.304 12.632-16.57 1.312-33.138-11.812-14.765-57.418-5.906z" style="fill:#e0dad3;fill-opacity:1;stroke-width:1.89847;stroke-linecap:round;paint-order:stroke fill markers" transform="translate(2.295 5.52)"/><path d="m63.855 44.41-27.889-29.2-1.148-11.484L57.785 16.03 63.2-.376l18.374 11.812 10.5 21.655zM130.297 35.06l15.257-23.788 10.991-4.101 1.477 17.061 5.577-2.296-.984 7.71-15.257 20.179z" style="fill:#869197;fill-opacity:1;stroke-width:1.89847;stroke-linecap:round;paint-order:stroke fill markers" transform="translate(2.295 5.52)"/><path d="m152.3 158.152 10.904 5.8 1.392 10.324-9.628 11.02-3.016-28.073z" style="fill:#eff6f2;fill-opacity:1;stroke-width:1.89847;stroke-linecap:round;paint-order:stroke fill markers" transform="translate(2.295 5.52)"/><path d="m55.653 169.583-5.086 18.702 2.665 17.862h112.186l-6.084-26.885-16.405 21.163-18.867 1.312z" style="fill:#4396a4;fill-opacity:1;stroke-width:1.89847;stroke-linecap:round;paint-order:stroke fill markers" transform="translate(2.295 5.52)"/><path d="m55.553 150.843 67.514 32.481 28.769-17.052-22.853-19.025-17.284 7.656-37.237-14.268-19.025 9.628z" style="fill:#4396a4;fill-opacity:1;stroke-width:1.89847;stroke-linecap:round;paint-order:stroke fill markers" transform="translate(2.295 5.52)"/><path d="m55.16 148.913 67.59 32.482 14.273-7.71 3.773 28.873-19.522.492-64.801-31.826-4.922 18.046-10.827-31.663z" style="fill:#eff6f2;fill-opacity:1;stroke-width:1.89847;stroke-linecap:round;paint-order:stroke fill markers" transform="translate(2.295 5.52)"/><path d="M101.504 25.155c-13.24.25-26.3 5.458-36.09 14.134-10.443 9.255-14.849 33.948-14.849 33.948l-7.888 80.738s-10.356 24.69-19.316 52.172H56.15l-1.641-12.963-12.064-34.8 17.632-8.817 4.409 6.265 2.617 50.315h29.27l-7.582-50.344-8.53-20.343 1.312-43.638 14.764-18.046 23.296 22.64 20.343-16.406 6.562 7.219-.656 29.857-13.78 20.015 7.934 69.046h18.507l-4.735-45.675 10.407 45.675h10.138c-9.249-25.998-24.49-68.876-24.49-68.876l2.089-40.37 9.744 7.866s-2.11-48.16-14.52-61.845c-12.412-13.684-28.889-17.303-43.023-17.75a53 53 0 0 0-2.649-.017" style="fill:#a9baba;fill-opacity:1;stroke-width:1.89847;stroke-linecap:round;paint-order:stroke fill markers" transform="translate(2.295 5.52)"/></svg>