<svg xmlns="http://www.w3.org/2000/svg" width="679.683" height="1520.64" viewBox="0 0 509.762 1140.48"><path fill="#f0ede4" fill-rule="evenodd" d="M336.491 297.068c12.142 67.467 31.402 110.081 45.47 188.034 3.204 17.751 12.305 38.49 12.78 64.44.344 18.762-16.254 30.703-20.52 29.16-6.771-2.448-21.966-78.167-45.585-227.155-1.212 2.034 1.406-16.125 7.855-54.479Z"/><path fill="#6f6d71" fill-rule="evenodd" d="M423.722 399.782c10.046.6 6.563 5.022 7.2 8.28L35.46 729.902c-7.788 1.546-6.4-2.365-5.58-5.94l393.842-324.18Z"/><path fill="#8f4952" fill-rule="evenodd" d="M209.502 448.28c49.898 6.304 100.225 12.06 148.154 4.581-1.28-33.916-24.138-67.557-17.82-103.096-43.042-23.082-83.299-3.447-124.479 2.036 6.301 16.554 4.35 48.713-5.855 96.478Z"/><path fill="#f0ede4" fill-rule="evenodd" d="m204.92 832.41 57.785.254c-3.288 30.193-2.948 46.315 1.019 48.366 2.99 1.546 21.747-42.9 51.93-73.822 7.487-1.524 22.76 8.828 45.82 31.056-48.31 57.792-81.403 97.078-99.278 117.861.023 15.416 9.337 31.551 6.11 36.911-7.685 12.763-25.477 11.773-34.366 8.146-11.472-32.829-22.74-107.678-29.02-168.773Z"/><path fill="#728a96" fill-rule="evenodd" d="M315.145 807.462c12.93 14.744 41.562 37.032 65.167 35.13 10.939-18.242 23.058-53.666 20.01-82.629-7.227-68.68-39.267-226.601-40.884-312.193-24.298 3.81-73.25 7.284-117.861 1.018-10.707-1.503-31.674-1.535-39.966 10.946-54.221 81.621 1.027 252.7-10.182 374.203 17.776 4.481 60.9 9.805 80.95-1.528-5.887-33.096-5.36-117.606 1.582-253.527 52.785 113.421 66.513 189.615 41.184 228.58Z"/><path fill="#f0ede4" fill-rule="evenodd" d="M132.3 282.061c20.6-2.309 42.005 7.074 47.34 15.84-13.468 16.497-61.485 52.132-52.56 57.24 9.57 5.477 37.346 38.046 68.94 64.26 10.31 8.554 30.78-2.913 48.42 9.54 13.782 9.728 10.598 22.231 4.5 32.22-6.862 11.245-45.39 2.252-51.84-2.88-34.887-27.759-117.634-81.77-117.9-105.84-.173-15.693 28.393-49.322 53.1-70.38ZM270.361 240.481c-3.302-13.735-3.302-21.655 0-23.76 16.864-10.754 40.03-23.908 48.24-52.38 3.275-11.356 2.855-32.176-1.26-62.46l-115.92 2.52c-6.008 32.655-6.788 54.915-2.34 66.78 6.044 16.122 21.906 31.094 23.22 39.78.984 6.505.204 14.065-2.34 22.68-.12 1.08 16.68 3.36 50.4 6.84Z"/><path fill="#aa6f8a" fill-rule="evenodd" d="M130.08 283.58c-4.912-7.425 17.84-52.112 57.785-62.877 13.458-3.627 39.717 11.76 67.016 11.2 18.602-.38 35.153-8.411 56.19-4.072 14.487 2.988 27.596 22.262 30.547 56.257 1.693 19.497 3.254 60.726-5.345 72.295-7.67 10.319-34.03-9.186-46.33-9.164-14.059.025-55.503 22.476-72.804 10.946-8.093-5.393-15.984-27.964-23.674-67.713-28.31 16.5-49.438 14.208-63.385-6.873Z"/><path fill="#ebd9dd" fill-rule="evenodd" d="M314.126 202.375c15.841-16.458 22.68-74.766 22.401-98.26-.487-41.035-21.524-81.737-81.646-79.423-60.123 2.314-93.482 22.371-88.4 99.533 4.029 61.148 17.994 89.957 25.457 74.84 7.995-16.194 13.688-79.593 39.456-79.677 25.063-.08 32.235 33.59 35.893 33.093 9.134-1.238 7.15-36.337 24.438-36.402 25.791-.096 22.348 60.135 22.401 86.296Z"/><path fill="#aa6f8a" fill-rule="evenodd" d="M268.381 990.724c20.497 30.702 43.847 98.84 36.72 116.1-7.69 18.624-37.546 16.48-46.62 11.16-6.62-3.881-12.74-19.241-18.36-46.08-3.158 12.099-8.558 17.979-16.2 17.64-25.702-1.14-54.582-88.16-51.66-102.24 2.942-14.18 40.68-31.872 50.988-36.27 3.07 10.184 6.824 37.155 10.752 42.93 5.47 8.042 21.24 1.916 34.38-3.24Z"/></svg>