<svg xmlns="http://www.w3.org/2000/svg" width="384" height="384" viewBox="0 0 288 288"><path fill="#f0ede4" fill-rule="evenodd" d="M225.42 261.668c11.268 62.614 29.143 102.163 42.2 174.509 2.973 16.474 11.419 35.721 11.86 59.805.32 17.412-15.085 28.494-19.044 27.062-6.284-2.272-20.387-72.544-42.306-210.816-1.125 1.888 1.305-14.965 7.29-50.56Z"/><path fill="#6f6d71" fill-rule="evenodd" d="M306.376 356.993c9.323.558 6.091 4.661 6.682 7.685l-367.016 298.69c-7.228 1.435-5.94-2.195-5.179-5.512l365.513-300.863Z"/><path fill="#f0ede4" fill-rule="evenodd" d="M35.916 247.74c19.119-2.143 38.983 6.565 43.935 14.7-12.5 15.311-57.062 48.383-48.779 53.124 8.88 5.083 34.659 35.31 63.981 59.638 9.569 7.938 28.565-2.704 44.937 8.853 12.79 9.029 9.835 20.632 4.177 29.903-6.37 10.436-42.126 2.09-48.112-2.673-32.378-25.762-109.173-75.89-109.42-98.227-.16-14.565 26.351-45.774 49.281-65.318ZM164.046 209.151c-3.064-12.747-3.064-20.097 0-22.052 15.651-9.98 37.15-22.188 44.77-48.612 3.04-10.538 2.65-29.86-1.169-57.967l-107.582 2.338c-5.576 30.307-6.3 50.966-2.172 61.977 5.61 14.963 20.33 28.858 21.55 36.919.914 6.038.19 13.054-2.172 21.048-.11 1.003 15.48 3.12 46.775 6.35Z"/><path fill="#aa6f8a" fill-rule="evenodd" d="M33.856 249.15c-4.559-6.89 16.557-48.363 53.628-58.354 12.49-3.367 36.86 10.914 62.196 10.394 17.264-.354 32.625-7.807 52.148-3.78 13.445 2.774 25.611 20.662 28.35 52.212 1.571 18.094 3.02 56.357-4.96 67.094-7.119 9.577-31.584-8.525-42.998-8.505-13.048.023-51.51 20.86-67.567 10.159-7.511-5.005-14.835-25.953-21.971-62.842-26.274 15.312-45.882 13.186-58.826-6.379Z"/><path fill="#ebd9dd" fill-rule="evenodd" d="M204.664 173.786c14.701-15.274 21.048-69.388 20.79-91.193-.452-38.083-19.976-75.857-75.774-73.71-55.798 2.148-86.758 20.762-82.04 92.374 3.737 56.75 16.698 83.487 23.624 69.457 7.42-15.03 12.704-73.868 36.619-73.946 23.26-.075 29.916 31.173 33.31 30.713 8.478-1.15 6.636-33.724 22.681-33.784 23.936-.09 20.74 55.81 20.79 80.089Z"/></svg>