<?xml version="1.0" standalone="no"?>
<!DOCTYPE svg PUBLIC "-//W3C//DTD SVG 20010904//EN" "http://www.w3.org/TR/2001/REC-SVG-20010904/DTD/svg10.dtd">
<!-- Created using Krita: https://krita.org -->
<svg xmlns="http://www.w3.org/2000/svg" 
    xmlns:xlink="http://www.w3.org/1999/xlink"
    xmlns:krita="http://krita.org/namespaces/svg/krita"
    xmlns:sodipodi="http://sodipodi.sourceforge.net/DTD/sodipodi-0.dtd"
    width="750.172pt"
    height="750.172pt"
    viewBox="0 0 750.172 750.172">
<defs/>
<path id="shape0" transform="matrix(1.00000000360913 0 0 1.00000000360913 246.483283716774 36.777998763048)" fill="#e1555c" fill-rule="evenodd" d="M0 321.807L76.3851 0C126.601 99.8428 182.881 181.493 227.033 299.528C219.086 296.756 143.408 304.182 0 321.807Z"/><path id="shape0" transform="translate(207.227904723761, 290.490390489213)" fill="#e8e4cb" fill-rule="evenodd" d="M60.3335 331.652C72.6543 376.905 123.183 416.343 161.857 415.922C219.868 415.289 264.324 386.408 278.634 355.158C300.098 308.283 287.866 270.503 283.385 261.636C302.173 258.301 325.171 240.598 329.145 199.622C338.398 104.234 298.916 84.7935 284.635 69.0922C275.071 58.5769 252 19.9413 234.815 10.099C199.654 -10.0394 177.375 6.07897 167.858 6.56265C153.582 7.28816 129.472 -6.82914 104.844 8.32821C82.5333 22.059 80.925 28.2269 39.3287 65.8414C-7.27748 107.986 -8.73776 195.905 15.5619 234.657C26.7052 252.428 55.6237 245.979 60.1198 245.266C54.7349 268.539 52.1197 301.484 60.3335 331.652Z"/><path id="shape1" transform="translate(281.139465151176, 473.283452892518)" fill="#726654" fill-rule="evenodd" d="M22.1022 20.744C26.6955 7.01125 39.3698 0.40533 54.8134 0.05639C70.2569 -0.29255 90.8487 0.554297 93.9466 15.0859C96.7009 28.0057 108.29 44.0806 131.906 49.5652C134.68 50.2097 147.989 47.2878 146.405 50.0957C135.348 69.6959 100.599 102.964 90.7073 139.742C87.8698 150.292 61.4255 160.592 29.5285 143.102C12.5837 133.81 19.3617 91.4326 0 34.0053C0 34.0053 17.2321 35.3042 22.1022 20.744Z"/>
</svg>
