<svg xmlns="http://www.w3.org/2000/svg" width="1843.213" height="1036.804" viewBox="0 0 1382.41 777.603"><path fill="#211c47" fill-rule="evenodd" d="M-7.2 777.603V329.041l1389.61-2.16v450.722c3.6 3.6-459.607 3.6-1389.61 0Z"/><path fill="#030c23" fill-rule="evenodd" d="M0 352.801c194.221 42.684 385.742 62.964 574.562 60.841 188.821-2.124 458.098-29.604 807.848-82.441V0H0c-4.32 0-4.32 117.6 0 352.801Z"/><path fill="#020308" fill-rule="evenodd" d="M211.32 605.882c19.837-20.57 1.409-69.09-27.019-77.417-28.427-8.326-66.72-1.223-79.54 32.057-12.822 33.28 29.997 77.817 22.01 148.171 31.096-54.902 64.714-82.24 84.55-102.81ZM528.482 674.643c-14.036-25.793-6.778-55.713 15.48-66.6 22.259-10.888 62.707 3.85 74.52 26.64 7.876 15.193-1.222 61.337 7.56 114.84-43.246-62.584-83.524-49.088-97.56-74.88ZM1134.062 561.303c-35.711 3.694-66.166 28.547-57.785 61.095 8.381 32.547 85.33 55.944 109.715 129.061 21.21-66.12 22.272-125.47 17.056-147.644-7.824-33.261-33.275-46.205-68.986-42.512ZM1246.865 315.721c18.39-10.635 23.992-37.048 13.14-50.76-10.853-13.712-41.326-11.536-56.52 5.94-10.13 11.65-15.296 50.406-42.48 90 26.593-27.489 73.6-38.09 85.86-45.18ZM323.036 383.112c-7.544-19.717 18.308-42.337 39.845-45.43 21.538-3.095 52.94 2.168 59.178 28.374 4.16 17.471-3.807 50.733-23.897 99.786-45.055-42.009-70.097-69.585-75.126-82.73ZM183.028 102.587c-6.009-9.42.69-23.015 9.674-26.983 8.983-3.968 29.548-2.026 36.401 11.2 6.854 13.227-7.915 39.11-7.89 54.477-13.235-20.424-34.179-32.413-38.185-38.694ZM988.564 99.36c-7.145-10.04-.567-24.128 7.02-29.16s28.155-5.504 34.74 3.42c4.39 5.95 7.39 23.05 9 51.3-29.077-10.346-45.997-18.866-50.76-25.56Z"/><path fill="#18a24d" fill-rule="evenodd" d="M723.603 252c-30.24 43.824-41.04 83.424-32.4 118.801 12.959 53.066 189.832 166.286 225.72 226.395 38.373 64.272 9.766 113.461-21.96 132.886-21.15 12.951-84.935 18.018-146.52-26.28-.595-2.286 4.79-11.816 12.18-15.474 58.978 30.083 132.523 20.233 135.06-8.286 5.023-56.469-167.956-184.57-204.48-217.08-54.787-48.767-59.124-101.207-51.84-133.56 7.282-32.355 20.602-57.555 39.96-75.601 14.64-7.44 29.4-8.04 44.28-1.8Z"/><path fill="#020308" fill-rule="evenodd" d="M714.063 631.803c-.461 6.238 7.423 8.119 8.886 7.65 14.023-4.49 12.68-37.197 12.473-46.584-1.718-77.948-24.171-104.6-25.14-148.447 22.513 3.987 41.743-3.251 47.34-6.84 11.399-7.308-9.096-34.127-24.66-43.38-14.505-8.625-26.661-21.063-25.2-24.48 2.069-4.835 12.024.23 32.4 8.64 11.437 4.719 60.955 5.705 64.8-10.26-27.062-1.528-76.28-10.066-77.4-30.87-.358-6.685-.474-28.084 13.86-31.95 40.612-10.954 90.74 7.785 115.74-.72 63.155-21.487 44.65-123.488 19.54-156.408-60.758-79.66-158.342-92.184-211.06-85.874-72.9 8.727-100.007 63.826-100.08 92.16-.216 84.483 97.988 85.476 84.78 127.8-6.39 20.479 4.087 40.922 7.949 49.706-7.347 6.87-17.425 17.572-17.489 23.916-.246 24.422-35.637 7.666-58.625 38.196-15.267 20.277 1.777 53.626 11.105 56.664 38.818 12.643 87.879 50.654 107.1 67.32 16.742 14.516 17.788 58.124 13.68 113.76Z"/><path fill="#18a24d" fill-rule="evenodd" d="M822.226 303.584c.753-41.807 14.245-66.33 40.475-73.568 39.346-10.857 215.566 106.684 213.703 189.746-1.746 77.835-20.027 112.668-100.933 154.164-58.256 29.88-210.305 54.617-312.889 53.017-102.584-1.601-207.318-12.99-222.66 8.46-9.89 13.826 48.304 41.87 174.584 84.13-4.72 5.913-6.123 12.489-8.655 18.839-66.577-21.97-151.898-24.267-195.501-70.768-30.34-32.357-10.534-70.461 41.452-79.002 133.86-21.991 493.45 22.794 560.835-124.136 23.22-50.628-60.475-92.332-190.41-160.882ZM750.243 196.92c-192.835 54.493-463.782 24.51-506.12 27.601-42.34 3.092-97.09 10.385-117.402 52.32-13.543 27.957 5.897 54.357 58.32 79.2 50.137 22.713 67.897 36.873 53.28 42.48-12.383 4.75-67.223-6.53-164.52-33.84-2.278 4.739-3.54 11.036-13.32 15.48 114.911 54.07 184.032 61.63 207.36 22.68 34.992-58.425-115.406-98.417-98.64-112.32 20.294-16.83 424.668 45.884 559.082-30.6 15.175-7.317 27.942-44.653 21.96-63Z"/><path fill="#18a24d" fill-rule="evenodd" d="M618.07 171.064c-30.605 75.376-60.473 129.343-89.604 161.9-29.132 32.557-129.139 61.308-136.954 86.04-4.222 13.362 91.51 58.364 175.647 61.095 84.136 2.73 270.178-36.37 383.875-20.365 75.798 10.67 157.257 49.533 244.377 116.589l-15.783 19.855c-77.056-58.961-155.8-93.072-236.231-102.333-80.43-9.261-286.564 40.187-389.985 35.639-103.421-4.548-207.975-23.99-223.248-75.86-15.274-51.868 19.566-77.222 67.277-107.663 39.678-25.315 86.565-33.833 176.336-129.076 1.016-1.078 13.746-16.971 44.293-45.821Z"/></svg>