<svg xmlns="http://www.w3.org/2000/svg" width="384" height="384" viewBox="0 0 288 288"><path fill="#211c47" fill-rule="evenodd" d="M-267.274 399.568V130.162l833.346-1.297v270.703c2.159 2.162-275.626 2.162-833.346 0Z"/><path fill="#030c23" fill-rule="evenodd" d="M-262.957 144.432c116.474 25.636 231.33 37.816 344.564 36.541 113.236-1.275 274.72-17.78 484.465-49.514V-67.459h-829.029c-2.59 0-2.59 70.63 0 211.891Z"/><path fill="#020308" fill-rule="evenodd" d="M-136.228 296.432c11.896-12.354.844-41.495-16.204-46.496-17.047-5-40.01-.735-47.7 19.253-7.689 19.988 17.99 46.737 13.2 88.992 18.648-32.974 38.808-49.394 50.704-61.749ZM53.973 337.73c-8.417-15.491-4.065-33.461 9.283-40 13.349-6.54 37.605 2.312 44.69 16 4.723 9.125-.733 36.839 4.534 68.973-25.935-37.588-50.09-29.482-58.507-44.973ZM417.138 269.658c-21.416 2.219-39.68 17.145-34.653 36.694 5.026 19.548 51.172 33.6 65.795 77.514 12.72-39.712 13.357-75.357 10.229-88.675-4.692-19.977-19.955-27.75-41.37-25.533ZM484.786 122.162c11.028-6.387 14.388-22.25 7.88-30.486-6.509-8.236-24.783-6.929-33.895 3.567-6.075 6.997-9.173 30.274-25.476 54.054 15.949-16.51 44.138-22.876 51.49-27.135ZM-69.233 162.637c-4.524-11.842 10.98-25.427 23.896-27.286 12.916-1.858 31.747 1.303 35.489 17.042 2.494 10.493-2.283 30.47-14.332 59.931-27.019-25.23-42.037-41.792-45.053-49.687ZM-153.195-5.846c-3.603-5.658.414-13.823 5.801-16.206 5.387-2.383 17.72-1.216 21.83 6.727 4.11 7.944-4.746 23.49-4.732 32.718-7.936-12.266-20.497-19.467-22.899-23.239ZM329.883-7.784c-4.284-6.03-.34-14.491 4.21-17.513 4.55-3.023 16.885-3.306 20.834 2.054 2.632 3.573 4.431 13.843 5.397 30.81-17.438-6.213-27.585-11.33-30.44-15.35Z"/><path fill="#18a24d" fill-rule="evenodd" d="M170.987 83.892c-18.135 26.32-24.612 50.104-19.43 71.351 7.77 31.872 113.841 99.871 135.363 135.973 23.013 38.601 5.857 68.144-13.169 79.81-12.684 7.78-50.935 10.822-87.868-15.783-.357-1.373 2.872-7.097 7.305-9.294 35.369 18.068 79.473 12.152 80.995-4.976 3.012-33.915-100.723-110.853-122.627-130.379-32.855-29.288-35.456-60.784-31.088-80.216 4.367-19.432 12.355-34.567 23.964-45.405 8.78-4.468 17.63-4.829 26.555-1.081Z"/><path fill="#020308" fill-rule="evenodd" d="M165.265 312c-.276 3.747 4.452 4.876 5.33 4.595 8.409-2.696 7.603-22.34 7.48-27.979-1.03-46.815-14.496-62.822-15.076-89.157 13.5 2.395 25.032-1.952 28.39-4.108 6.835-4.389-5.456-20.496-14.79-26.054-8.699-5.18-15.988-12.65-15.112-14.702 1.24-2.904 7.21.138 19.43 5.189 6.859 2.834 36.555 3.426 38.861-6.162-16.23-.918-45.746-6.046-46.417-18.54-.215-4.016-.285-16.868 8.312-19.19 24.354-6.579 54.417 4.676 69.41-.432 37.873-12.905 26.775-74.167 11.717-93.939-36.437-47.844-94.958-55.365-126.572-51.575C92.509-24.814 76.253 8.28 76.21 25.297c-.13 50.74 58.763 51.336 50.842 76.757-3.832 12.299 2.451 24.577 4.767 29.853-4.406 4.126-10.45 10.553-10.488 14.363-.148 14.668-21.371 4.605-35.157 22.94-9.156 12.18 1.066 32.209 6.66 34.033 23.279 7.594 52.7 30.423 64.228 40.432 10.04 8.719 10.666 34.91 8.203 68.325Z"/><path fill="#18a24d" fill-rule="evenodd" d="M230.13 114.873c.452-25.11 8.544-39.838 24.274-44.185 23.595-6.52 129.274 64.074 128.157 113.96-1.047 46.748-12.01 67.669-60.53 92.591-34.935 17.946-126.119 32.803-187.638 31.842-61.52-.961-124.329-7.8-133.53 5.081-5.93 8.304 28.969 25.147 104.699 50.53-2.832 3.55-3.672 7.5-5.19 11.313-39.927-13.194-91.094-14.574-117.243-42.503-18.195-19.433-6.317-42.318 24.859-47.448 80.275-13.208 295.92 13.69 336.332-74.556 13.924-30.407-36.267-55.454-114.19-96.625ZM186.963 50.81C71.32 83.539-91.167 65.532-116.557 67.389c-25.39 1.856-58.224 6.236-70.405 31.423-8.122 16.79 3.536 32.646 34.974 47.568 30.067 13.64 40.718 22.145 31.952 25.513-7.426 2.853-40.313-3.922-98.663-20.324-1.366 2.845-2.122 6.627-7.988 9.297 68.913 32.474 110.365 37.015 124.354 13.622 20.985-35.09-69.208-59.11-59.154-67.46 12.17-10.108 254.673 27.558 335.28-18.378 9.1-4.395 16.757-26.819 13.17-37.838Z"/><path fill="#18a24d" fill-rule="evenodd" d="M107.699 35.281c-18.354 45.27-36.266 77.683-53.736 97.237-17.47 19.554-77.444 36.822-82.13 51.676-2.532 8.025 54.878 35.053 105.334 36.693 50.457 1.64 162.026-21.843 230.21-12.231 45.455 6.408 94.306 29.75 146.552 70.023l-9.465 11.925c-46.21-35.412-93.433-55.899-141.667-61.461-48.234-5.562-171.852 24.136-233.874 21.405-62.021-2.732-124.721-14.409-133.881-45.561-9.16-31.153 11.734-46.38 40.346-64.663 23.795-15.204 51.913-20.32 105.748-77.523.61-.647 8.244-10.192 26.563-27.52Z"/></svg>