<?xml version="1.0" standalone="no"?>
<!DOCTYPE svg PUBLIC "-//W3C//DTD SVG 20010904//EN" "http://www.w3.org/TR/2001/REC-SVG-20010904/DTD/svg10.dtd">
<!-- Created using Krita: https://krita.org -->
<svg xmlns="http://www.w3.org/2000/svg" 
    xmlns:xlink="http://www.w3.org/1999/xlink"
    xmlns:krita="http://krita.org/namespaces/svg/krita"
    xmlns:sodipodi="http://sodipodi.sourceforge.net/DTD/sodipodi-0.dtd"
    width="288pt"
    height="288pt"
    viewBox="0 0 288 288">
<defs/>
<path id="shape0" transform="matrix(0.928070782983573 0 0 0.928070782983573 217.862849271135 261.667774476773)" fill="#f0ede4" fill-rule="evenodd" d="M8.14262 0C20.2842 67.4668 39.5445 110.081 53.613 188.034C56.8167 205.785 65.9173 226.524 66.393 252.474C66.737 271.236 50.1389 283.177 45.873 281.634C39.1012 279.186 23.9062 203.467 0.287726 54.4784C-0.924515 56.5131 1.69378 38.3536 8.14262 0Z"/><path id="shape1" transform="matrix(0.928070782983573 0 0 0.928070782983573 -59.7423061355243 356.993047939437)" fill="#6f6d71" fill-rule="evenodd" d="M394.494 0C404.54 0.601123 401.057 5.02217 401.694 8.28003L6.23236 330.121C-1.55558 331.666 -0.168208 327.755 0.652339 324.181C0.652339 324.181 131.933 216.121 394.494 0Z"/><path id="shape5" transform="matrix(0.928070782983573 0 0 0.928070782983573 -13.3649903201927 247.410865706698)" fill="#f0ede4" fill-rule="evenodd" d="M53.101 0.354808C73.7011 -1.95392 95.1051 7.42891 100.441 16.1949C86.9724 32.6919 38.9557 68.3265 47.881 73.4351C57.4498 78.912 85.2262 111.481 116.821 137.695C127.131 146.249 147.6 134.782 165.241 147.235C179.022 156.963 175.838 169.466 169.741 179.455C162.878 190.7 124.35 181.707 117.901 176.575C83.0135 148.816 0.265987 94.8039 0.000781241 70.7351C-0.17214 55.0415 28.3937 21.4132 53.101 0.354808Z"/><path id="shape6" transform="matrix(0.928070782983573 0 0 0.928070782983573 95.2590064576132 80.5197215401619)" fill="#f0ede4" fill-rule="evenodd" d="M74.1187 138.601C70.8163 124.866 70.8163 116.946 74.1187 114.84C90.9826 104.087 114.148 90.9324 122.359 62.4602C125.634 51.1049 125.214 30.2848 121.099 0L5.17844 2.52001C-0.829773 35.1755 -1.60978 57.4355 2.83843 69.3003C8.88275 85.4223 24.7445 100.395 26.0585 109.08C27.0428 115.586 26.2628 123.146 23.7185 131.76C23.5985 132.84 40.3986 135.121 74.1187 138.601Z"/><path id="shape7" transform="matrix(0.928070782983573 0 0 0.928070782983573 33.2415933075662 190.281258458341)" fill="#aa6f8a" fill-rule="evenodd" d="M0.661552 63.4303C-4.25005 56.0066 18.5018 11.3195 58.4465 0.554116C71.9048 -3.07298 98.164 12.3146 125.463 11.7547C144.065 11.3732 160.616 3.34263 181.653 7.68178C196.14 10.6698 209.249 29.9442 212.2 63.9394C213.893 83.4366 215.454 124.665 206.855 136.234C199.185 146.553 172.824 127.048 160.525 127.07C146.466 127.095 105.022 149.546 87.7209 138.016C79.6278 132.623 71.7364 110.052 64.0468 70.3034C35.7374 86.8023 14.609 84.5112 0.661552 63.4303Z"/><path id="shape8" transform="matrix(0.928070782983573 0 0 0.928070782983573 67.1682351844641 8.79625412873866)" fill="#ebd9dd" fill-rule="evenodd" d="M148.152 177.777C163.993 161.319 170.832 103.011 170.553 79.5167C170.066 38.4817 149.029 -2.21975 88.9066 0.0942046C28.7841 2.40816 -4.57527 22.4651 0.507444 99.6269C4.5353 160.775 18.5008 189.584 25.9634 174.467C33.9582 158.273 39.652 94.8735 65.4201 94.7903C90.483 94.7094 97.6549 128.379 101.313 127.883C110.447 126.645 108.462 91.5455 125.751 91.481C151.542 91.3848 148.099 151.616 148.152 177.777Z"/>
</svg>
