<svg xmlns="http://www.w3.org/2000/svg" xml:space="preserve" width="1200" height="1200" viewBox="0 0 317.5 317.5"><g style="display:inline"><path d="m71.127 212.752 117.363-.798.798-117.896-125.347 2.928Z" style="fill:#000;fill-opacity:1;stroke-width:1.5;stroke-linecap:round;paint-order:stroke fill markers" transform="translate(32.919 14.791)"/><path d="m47.675 245.596 23.685-38.855 50.831-17.83-2.129 47.104 34.863-40.451 68.395 25.548 11.444 30.339-26.88 22.887-21.556-17.032-75.847 22.355-24.75-36.726z" style="display:inline;fill:#d3d3d3;fill-opacity:1;stroke-width:1.5;stroke-linecap:round;paint-order:stroke fill markers" transform="translate(32.919 14.791)"/><path d="m107.954 218.29 10.538 26.91 30.862-32.931 3.387 15.619-23.335 23.335-5.645 24.84-14.49 4.328-7.715-11.291 4.892-23.711-10.162-22.394 4.893-15.807z" style="fill:#8c4d90;fill-opacity:1;stroke-width:1.5;stroke-linecap:round;paint-order:stroke fill markers" transform="translate(32.919 14.791)"/><path d="m120.094 238.833-4.258-20.758 8.516-15.17-4.524-19.161-31.935-16.766-14.105-58.283 39.92-14.637 63.072 18.896-20.492 56.685-2.661 27.411z" style="fill:#fee7d5;fill-opacity:1;stroke-width:1.5;stroke-linecap:round;paint-order:stroke fill markers" transform="translate(32.919 14.791)"/><path d="m147.284 268.347 19.194-29.733-13.925-43.281 16.936-57.96-25.216-24.464-33.497 18.442-18.441-27.475-18.442 9.033 1.129 95.596-36.131 25.593 17.313-47.422-5.646-51.185-17.689 3.01 16.56-29.356 25.216-72.638-23.71 29.357-10.539-18.819 25.217-30.861 40.27-6.775 68.875-1.882 32.744 18.442-37.26-6.398 10.914 7.527 27.851 3.764 5.646 35.002 16.936 61.347-20.323-9.786 24.463 27.475-29.733 1.882 13.173 56.454 14.302 21.077-1.882 17.312-46.293-25.969-8.656 54.95z" style="fill:#9f804f;fill-opacity:1;stroke-width:1.5;stroke-linecap:round;paint-order:stroke fill markers" transform="translate(32.919 14.791)"/><path d="m40.773 228.453 4.516-12.42 36.507-16.56 19.571-31.991-13.549-19.571-30.485 21.453 1.129-18.819-11.291-2.634-24.84 41.4-6.398 30.109z" style="fill:#fee7d5;fill-opacity:1;stroke-width:1.5;stroke-linecap:round;paint-order:stroke fill markers" transform="translate(32.919 14.791)"/></g></svg>