<svg xmlns="http://www.w3.org/2000/svg" xml:space="preserve" width="400" height="400" viewBox="0 0 105.833 105.833"><g style="display:inline"><path d="M0 0h105.833v105.833H0z" style="display:inline;fill:#b38bbe;fill-opacity:1;stroke-width:.499999;stroke-linecap:round;paint-order:stroke fill markers"/><path d="m34.33 75.935 39.122-.266.266-39.298-41.783.976Z" style="fill:#000;fill-opacity:1;stroke-width:.499999;stroke-linecap:round;paint-order:stroke fill markers"/><path d="m26.513 86.884 7.896-12.952 16.943-5.944-.71 15.702 11.621-13.484 22.799 8.516 3.814 10.113-8.96 7.63-7.185-5.678-25.282 7.451-8.25-12.242Z" style="display:inline;fill:#d3d3d3;fill-opacity:1;stroke-width:.499999;stroke-linecap:round;paint-order:stroke fill markers"/><path d="m46.606 77.782 3.513 8.97 10.287-10.978 1.13 5.207-7.779 7.778-1.882 8.28-4.83 1.443-2.571-3.764 1.63-7.904-3.387-7.464 1.631-5.27z" style="fill:#8c4d90;fill-opacity:1;stroke-width:.499999;stroke-linecap:round;paint-order:stroke fill markers"/><path d="m50.653 84.629-1.42-6.92 2.84-5.056-1.508-6.387-10.646-5.589-4.701-19.427 13.306-4.879 21.024 6.298-6.83 18.896-.887 9.137z" style="fill:#fee7d5;fill-opacity:1;stroke-width:.499999;stroke-linecap:round;paint-order:stroke fill markers"/><path d="m59.716 94.467 6.398-9.91-4.641-14.428 5.645-19.32-8.405-8.154-11.166 6.147-6.147-9.158-6.147 3.01.376 31.866-12.044 8.53 5.771-15.806-1.881-17.062-5.897 1.003 5.52-9.785 8.406-24.213-7.904 9.786-3.513-6.273 8.406-10.287 13.423-2.258 22.958-.628 10.915 6.148-12.42-2.133 3.638 2.509 9.284 1.254 1.882 11.668 5.645 20.449-6.774-3.262 8.154 9.158-9.91.627 4.39 18.819 4.767 7.025-.627 5.77-15.43-8.655-2.886 18.316z" style="fill:#9f804f;fill-opacity:1;stroke-width:.499999;stroke-linecap:round;paint-order:stroke fill markers"/><path d="m24.213 81.169 1.505-4.14 12.17-5.52 6.523-10.664-4.516-6.523-10.162 7.15.376-6.272-3.764-.878-8.28 13.8-2.132 10.036z" style="fill:#fee7d5;fill-opacity:1;stroke-width:.499999;stroke-linecap:round;paint-order:stroke fill markers"/></g></svg>