<svg xmlns="http://www.w3.org/2000/svg" width="1000.229" height="1000.229" viewBox="0 0 750.172 750.172"><path fill="#e1555c" fill-rule="evenodd" d="m246.483 358.585 76.385-321.807c50.216 99.843 106.496 181.493 150.648 299.528-7.947-2.772-83.625 4.654-227.033 22.279Z"/><path fill="#e8e4cb" fill-rule="evenodd" d="M267.561 622.142c12.321 45.253 62.85 84.691 101.524 84.27 58.01-.633 102.467-29.514 116.777-60.764 21.464-46.875 9.232-84.655 4.75-93.522 18.789-3.335 41.787-21.038 45.76-62.014 9.254-95.388-30.228-114.828-44.51-130.53-9.563-10.515-32.634-49.15-49.82-58.993-35.16-20.138-57.44-4.02-66.956-3.536-14.276.726-38.386-13.392-63.014 1.766-22.31 13.73-23.92 19.898-65.515 57.513-46.607 42.144-48.067 130.063-23.767 168.815 11.143 17.771 40.062 11.322 44.558 10.61-5.385 23.272-8 56.217.213 86.385Z"/><path fill="#726654" fill-rule="evenodd" d="M303.242 494.027c4.593-13.732 17.267-20.338 32.71-20.687 15.444-.35 36.036.498 39.134 15.03 2.754 12.92 14.343 28.994 37.96 34.479 2.773.644 16.082-2.278 14.498.53-11.057 19.6-45.806 52.868-55.697 89.646-2.838 10.55-29.282 20.85-61.179 3.36-16.945-9.292-10.167-51.669-29.529-109.096 0 0 17.233 1.299 22.103-13.262Z"/></svg>