<svg xmlns="http://www.w3.org/2000/svg" width="1843.2" height="1036.8" viewBox="0 0 1382.4 777.6"><path fill-rule="evenodd" d="M0 0v777.6h1382.4V0C1383.36-5.76 922.56-5.76 0 0Z"/><circle cx="20.52" cy="20.52" r="20.52" fill="#e9fffe" fill-rule="evenodd" transform="matrix(1 0 0 1 1139.76 126)"/><circle cx="375.12" cy="375.12" r="375.12" fill="#6a1e4e" fill-rule="evenodd" transform="matrix(1 0 0 1 36 -60.48)"/><path fill-rule="evenodd" d="M547.56-34.56C233.342-1.691 84.702 251.882 94.86 516.96c-96.33-154.858-72.54-325.44 22.5-444.24C212.4-46.08 377.002-66.955 547.56-34.56Z"/><path fill="#51bed3" fill-rule="evenodd" d="M784.898 285.113c234.123 98.91 425.589 205.55 445.407 279.329 33.01 122.869-327.238 90.33-756.056-40.18-428.82-130.51-868.89-330.858-911.75-464.816-35.46-110.83 311.467-56.474 568.318 5.289-9.917 14.67-16.262 14.748-35.792 47.36-143.758-22.37-283.705-25.43-267.68 28.55 24.118 81.244 289.21 219.895 628.6 321.786 339.386 101.89 550.957 105.136 527.73 32.731-10.726-33.442-90.201-87.769-199.307-144.744 1.563-34.974 2.073-18.6.53-65.305Z"/></svg>