<svg xmlns="http://www.w3.org/2000/svg" width="384" height="384" viewBox="0 0 288 288"><path fill-rule="evenodd" d="M-128.341-22.107v331.6h589.51v-331.6c.409-2.456-196.094-2.456-589.51 0Z"/><circle cx="375.12" cy="375.12" r="375.12" fill="#6a1e4e" fill-rule="evenodd" transform="matrix(.42644 0 0 .42644 -112.99 -47.898)"/><path fill="#51bed3" fill-rule="evenodd" d="M206.37 99.477c99.84 42.178 181.488 87.655 189.94 119.117 14.076 52.396-139.548 38.52-322.413-17.134C-108.968 145.805-296.63 60.368-314.909 3.244-330.03-44.02-182.087-20.84-72.556 5.499c-4.229 6.255-6.934 6.289-15.263 20.196-61.304-9.54-120.983-10.844-114.15 12.175 10.286 34.646 123.332 93.772 268.06 137.222s234.95 44.834 225.045 13.958c-4.574-14.261-38.465-37.428-84.992-61.725.667-14.914.884-7.931.226-27.848Z"/></svg>